/* XPM */
static const char *wxappfw_xpm[] = {
/* columns rows colors chars-per-pixel */
"71 71 250 2 ",
"   c #020201",
".  c #0C0303",
"X  c #090909",
"o  c #14070B",
"O  c #051309",
"+  c #0C0D12",
"@  c #180B13",
"#  c #0A1614",
"$  c #171617",
"%  c #12120F",
"&  c #21181E",
"*  c #313030",
"=  c #211C1C",
"-  c #752D33",
";  c #443027",
":  c #26793D",
">  c #6D3D48",
",  c #1A7C48",
"<  c #267748",
"1  c #33784C",
"2  c #347B56",
"3  c #6F4E50",
"4  c #736C6C",
"5  c #596053",
"6  c #90181E",
"7  c #AC1E19",
"8  c #96251D",
"9  c #B7261B",
"0  c #AB2814",
"q  c #992A27",
"w  c #9A352B",
"e  c #9B3835",
"r  c #8E332E",
"t  c #A82A2B",
"y  c #B42B2C",
"u  c #B92B27",
"i  c #A8342B",
"p  c #B8322B",
"a  c #A83736",
"s  c #BC3736",
"d  c #A72E32",
"f  c #911D20",
"g  c #C91B0C",
"h  c #C81E14",
"j  c #DD1D19",
"k  c #D31E14",
"l  c #D4150D",
"z  c #E31C1A",
"x  c #E71C19",
"c  c #C8240C",
"v  c #D5250E",
"b  c #CB2414",
"n  c #CC2A15",
"m  c #CC2A1B",
"M  c #C5261A",
"N  c #D32515",
"B  c #DB2314",
"V  c #D42B15",
"C  c #D4251B",
"Z  c #D9221A",
"A  c #D32A1C",
"S  c #DB2B1A",
"D  c #D6341D",
"F  c #C93414",
"G  c #E4261A",
"H  c #E31E20",
"J  c #CD2523",
"K  c #C42B25",
"L  c #C42C2B",
"P  c #CB2B27",
"I  c #D42423",
"U  c #D42A23",
"Y  c #D92725",
"T  c #C93229",
"R  c #DA3226",
"E  c #C53835",
"W  c #CC3331",
"Q  c #E42625",
"!  c #E2362C",
"~  c #CF1E24",
"^  c #9C4338",
"/  c #AA443B",
"(  c #D8433D",
")  c #9A3542",
"_  c #A93D44",
"`  c #92484C",
"'  c #A74848",
"]  c #B15450",
"[  c #B06357",
"{  c #8E5664",
"}  c #996974",
"|  c #95797A",
" . c #896771",
".. c #B36C6A",
"X. c #A15869",
"o. c #C77776",
"O. c #CF716B",
"+. c #E27773",
"@. c #CD5D5C",
"#. c #0F8E3E",
"$. c #16883D",
"%. c #21823F",
"&. c #0B8B45",
"*. c #168847",
"=. c #0B924C",
"-. c #089348",
";. c #198A51",
":. c #069552",
">. c #108E4E",
",. c #248249",
"<. c #38855A",
"1. c #288754",
"2. c #658F6C",
"3. c #63A57D",
"4. c #4A8E67",
"5. c #AA8579",
"6. c #CB887D",
"7. c #167898",
"8. c #227790",
"9. c #0E7BAA",
"0. c #327CA9",
"q. c #4075A1",
"w. c #087DCE",
"e. c #AE7888",
"r. c #CE7980",
"t. c #2F859B",
"y. c #1189B3",
"u. c #2893B5",
"i. c #2E8CAF",
"p. c #2A93A8",
"a. c #74B08B",
"s. c #4F9BB1",
"d. c #5799AC",
"f. c #078AC9",
"g. c #168CC6",
"h. c #1795CB",
"j. c #188BD5",
"k. c #1697D7",
"l. c #0890D3",
"z. c #2693C9",
"x. c #14A2DC",
"c. c #059BE4",
"v. c #1795E5",
"b. c #2194E4",
"n. c #21A6DA",
"m. c #78B0C8",
"M. c #79C7D9",
"N. c #7CD0E4",
"B. c #959993",
"V. c #AE9194",
"C. c #86B395",
"Z. c #B1A39C",
"A. c #B7B6B7",
"S. c #9BA2AF",
"D. c #D78886",
"F. c #D49291",
"G. c #E5928A",
"H. c #D39AA6",
"J. c #D9B2B5",
"K. c #E7A8A5",
"L. c #F7A9A8",
"P. c #F1B4B0",
"I. c #92D0B0",
"U. c #A7D7B6",
"Y. c #99E0B6",
"T. c #D9C3BA",
"R. c #FEC4BB",
"E. c #8ABAD0",
"W. c #D4BDC3",
"Q. c #F1BBC7",
"!. c #88CCD6",
"~. c #ABD0C8",
"^. c #B3EACA",
"/. c #ABD0E2",
"(. c #BEFAFE",
"). c #AEE9F5",
"_. c #91D5EA",
"`. c #D7CDCC",
"'. c #FECDCB",
"]. c #FBC9C5",
"[. c #FCD6C7",
"{. c #F9C8D4",
"}. c #E8DDD9",
"|. c #FFDBD4",
" X c #FDD7D8",
".X c #E9CBCB",
"XX c #CAF7D9",
"oX c #D5EBDA",
"OX c #E8E4DB",
"+X c #FEE4DC",
"@X c #FDEBDC",
"#X c #F8E7DA",
"$X c #FBF7DD",
"%X c #EFEAD3",
"&X c #C5D7EC",
"*X c #FFDBE5",
"=X c #FEDEEA",
"-X c #FFD4E0",
";X c #DBECE5",
":X c #CEFCE3",
">X c #DBFEEC",
",X c #D8FBE5",
"<X c #CBFFFF",
"1X c #C3FCFE",
"2X c #D4FDFE",
"3X c #DBFBF5",
"4X c #CDEBF8",
"5X c #ECECEC",
"6X c #E8E7E5",
"7X c #F3EDEC",
"8X c #FCEBED",
"9X c #FBE6E7",
"0X c #ECF2ED",
"qX c #E2FDED",
"wX c #ECFCEC",
"eX c #E4F6E7",
"rX c #FCFDE4",
"tX c #FEF4EC",
"yX c #F4FEEB",
"uX c #FDFCEB",
"iX c #F7F6E7",
"pX c #EAECF6",
"aX c #FEECF2",
"sX c #F7EBF6",
"dX c #ECF3F2",
"fX c #E3FDF4",
"gX c #ECFDF5",
"hX c #E4FFFC",
"jX c #ECFEFC",
"kX c #E8F4F7",
"lX c #F5F5F5",
"zX c #FCF4F4",
"xX c #F3FCF5",
"cX c #FCFBF4",
"vX c #F4F4FC",
"bX c #FDF5FB",
"nX c #F6FEFE",
"mX c #F4FDFC",
"MX c #FFF9FA",
"NX c #FEFAFD",
"BX c #FBFFFE",
"VX c #FAFFFF",
"CX c #F9FEFE",
"ZX c #FFFDFE",
"AX c #FFFDFF",
"SX c #FDFFFE",
"DX c white",
"FX c #FEFEFF",
"GX c #FDFEFD",
"HX c #FEFEFE",
/* pixels */
"DXDXDXDXDXDXDXDXDXDXDXDXDXDXDXDXcXcXuXrXuXcXvXvXnXnXcXuXrXyXxXjXnXnXnXnXCXCXDXDXGXGXNXMXMXzXzXzXNXDXDXDXDXCXCXCXCXCXDXAXNXNXbXbXDXDXDXDXDXDXDX",
"DXDXDXDXDXDXDXDXDXDXDXDXDXDXDXDXmXxXuXrXuXuXvXvXnXnXcXrXyXyXgXjXnXnXCXCXCXCXDXDXGXGXGXNXNXMXMXMXGXDXDXDXDXCXCXCXCXCXDXDXAXNXbXNXDXDXDXDXDXDXDX",
"DXDXDXDXDXDXDXDXDXDXDXDXDXDXDXDXnXmXuXrXrXuXMXbXbXMXuXrXrXyXmXmXnXCXCXCXCXDXDXDXDXDXDXGXGXGXGXGXDXDXDXDXDXCXCXCXCXCXDXDXNXNXNXNXDXDXDXDXDXDXDX",
"DXDXDXDXDXDXDXDXDXDXDXDXDXDXDXDXnXnXyXrXrXrXuXcXzXuXrX$XrXyXjXmXCXDXDXDXDXDXDXDXDXDXCXCXCXCXCXDXDXDXDXDXDXDXCXCXCXCXDXDXDXNXNXNXDXDXDXDXDXDXDX",
"DXDXDXDXDXDXDXDXDXDXDXDXDXDXDXDXnXnXxXyXrXrXuXuXuXrXrX$XyXyXmXnXDXDXDXDXDXDXDXDXCXCXCXCXnXnXnXnXDXDXDXDXDXDXCXCXCXCXCXDXDXDXDXNXDXDXDXDXDXDXDX",
"DXDXDXDXDXDXDXDXDXDXDXDXDXDXDXDXnXnXxXwXwXyXyXyXyXyXyXyXyXxXmXnXDXDXDXDXDXDXDXDXCXCXCXCXnXnXnXnXDXDXDXDXDXDXDXCXCXCXCXCXDXDXDXDXDXDXDXDXDXDXDX",
"DXDXDXDXDXDXDXDXDXDXDXDXDXDXDXDXCXmXjXfX>X>X3XfXfXfXqXqXwXwXcXcXGXGXDXDXDXDXDXDXDXDXDXDXDXCXCXCXDXDXDXDXDXDXDXDXCXCXCXCXCXCXCXDXDXDXDXDXDXDXDX",
"DXDXDXDXDXDXDXDXDXDXDXDXDXDXDXDXCXmXhX2X<X1X<X<X<X<X<X2X>XgXyXtXGXGXDXDXDXDXDXDXDXDXDXDXDXAXAXDXDXDXDXDXDXDXDXDXCXCXCXCXCXCXCXCXDXDXDXDXDXDXDX",
"DXDXDXDXDXDXDXDXDXDXDXDXDXDXDXDXGXmX2X1X!.s.s.i.s.M.).(.2X>XcX#XMXDXDXDXDXcXNXAXlXAXDXAXbXAXAXAXDXlXcXDXcXmXCXcXDXDXDXDXDXDXCXDXDXDXDXDXDXDXDX",
"DXDXDXDXDXDXDXDXDXDXDXDXDXDXDXDXlXmX/.s.u.z.z.9.z.i.u.N.1X3XtXuXcXDXCXDXDXDXDXDXDXAXlX7X7XbXbXlXmXxXmXmXlXCXDXCXDXDXDXDXDXDXDXDXDXDXDXDXDXDXDX",
"DXDXDXDXDXDXDXDXDXDXDXDXDXDXDXDXnX4Xd.7.y.f.f.l.h.9.y.u.M.2XcXtXGXCXcXCXDXDXDXCXOX0XDXDXcXxXxXcXmXCXCXmXmXDXDXlXDXDXDXDXDXCXDXCXDXDXDXDXDXDXDX",
"DXDXDXDXDXDXDXDXDXDXDXDXDXDXDXCXkXS.8.y.x.l.f.v.f.k.k.9.i.).CX9XGXDXCXCXCXmXlXxXCXxX6X;XeXgXwXeXgXnXmXxXCXDXmXlXDXDXDXDXDXDXDXDXDXDXDXDXDXDXDX",
"DXDXDXDXDXDXDXDXDXDXDXDXDXDXDXnX/.d.7.h.x.c.c.l.l.l.k.y.t.m.kXGXcXDXDXDXmXxXgXgX;X,XqXqX,XXX:X>XfXgX0XdXCXmXlXCXDXDXDXDXDXDXDXDXDXDXDXDXDXDXDX",
"DXDXDXDXDXDXDXDXDXDXDXDXDXDXCXmX/.t.y.x.l.c.v.l.j.f.k.h.u.s.4XCXlXAXDXDXCXmXgXgX>XXXU.a.3.a.Y.:X>XmXjXkXmXlXdXDXAXAXAXAXDXDXDXDXDXDXDXDXDXDXDX",
"DXDXDXDXDXDXDXDXDXDXDXDXDXDXCXjXE.t.g.x.c.c.k.j.j.j.k.g.u.i.2XkXCXbXbXDXCXmXfX,X^.a.<.< < 1.1.2 I.3XmXgXmXxXdXcXAXAXAXAXAXDXDXDXDXDXDXDXDXDXDX",
"DXDXDXDXDXDXDXDXDXDXDXDXDXDXDXjXd.i.h.l.c.v.j.j.j.g.k.g.u.8.2XjXDXbXsXbXCXgX:X^.1 < < < ,.*.*.;.2 ~.fXqXxXDXlXzXAXAXAXDXDXDXDXDXDXDXDXDXDXDXDX",
"DXDXDXDXDXDXDXDXDXDXDXDXDXDXDXmX!.t.y.y.f.v.v.v.b.j.h.z.t.d.&XCXvXbX6XAXOXgXXX< ,.*.,.,.,.*.=.>., 1 ^.,XcX6XaXaXAXAXCXnXnXnXCXcXDXDXDXDXDXDXDX",
"DXDXDXDXDXDXDXDXDXDXDXDXAXDXAXmX(.t.t.z.y.l.v.w.v.w.z.u.8.!.jX5XnXDXzXzXxX,Xa., *.*.*.*.*.>.=.=.*., 3.XX0XNX9XaXAXAXCXmXnXmXCXcXDXDXDXDXDXDXDX",
"DXDXDXDXDXDXDXDXDXDXDXDXDXDXDXnXhXm.t.y.y.h.j.b.j.j.y.7.s.).hX;XdX5XlX5XxXXX< ;.>.&.*.*.*.*.=.=.>.*.< ^.eXGX6XbXAXAXCXnXnXCXcXcXDXDXDXDXDXDXDX",
"DXDXDXDXDXDXDXDXDXDXDXDXDXDXDXCXvX4Xm.7.y.y.y.g.0.i.0.s.).2X3XgXCX6XGXcXqX^., ;.=.-.-.*.*.&.-.=.=.*.< I.qXeXlXbXAXCXCXnXCXDXNXMXDXDXDXDXDXDXDX",
"DXDXDXDXDXDXDXDXDXCXDXCXCXCXCXDXvXkX).M.u.u.u.7.0.q.m.4XhXjXxXyXiX6XiXwX,XY.;.>.:.:.-.-.&.&.&.-.-.;.1.I.>X;XCXlXCXCXCXCXCXDXNXzXDXDXDXDXDXDXDX",
"DXDXDXDXDXDXDXDXCXCXCXCXCXCXCXDXpXvX2X1X_.M.M.!./.&XpXbXbX#X+XtX.XuX@XOXwX^., >.:.:.-.-.&.#.#.&.&.;., Y.:XgXnXdXCXCXCXCXDXDXNXzXDXDXDXDXDXDXDX",
"DXDXDXDXDXCXDXCXCXCXCXCXCXCXCXCXpXCX3X2X2X1X4XnXsXaX{.K.K.F.D.L.K.[.|.#XuXXX<., >.:.:.-.&.#.$.$.*.;.<.^.:XjXgXxXCXCXCXCXDXDXNXbXDXDXDXDXDXDXDX",
"DXDXDXDXDXCXCXCXCXCXCXCXCXCXGXCXxXkXdXmX0X7XaXQ.F.X.) a q q t 8 r r D.R.|.uXC.<.;.>.=.-.&.$.$.%.,.< 4.>X>XqXdXCXCXCXCXCXDXDXNXcXDXDXDXDXDXDXDX",
"AXDXDXDXDXCXCXnXnX0XmXxX0XcXGXxXCX0XtX9X'.K.o._ d t y L L K L T p i 8 ^ 6.@XuX2.1 1.*.&.*.,.: : 1 C.:XfXqXxXDXDXDXDXDXDXDXCXCXCXCXDXDXDXDXDXCX",
"AXDXDXDXDXCXCXnXCXxX0X0XGXcX6XcXOXOX+X].o.e q y p L P U U C C J P u p a ^ o.[.rX2.1 ,., , ,.1 2 a.~.qXxXxXDXDXAXDXDXCXCXCXCXCXmXDXDXDXDXDXDXDX",
"AXDXDXDXDXCXCXnX0XlXGXlXOX7XGX7XcX XF.) 6 t E u K P U C N C A A U M T L 8 q o.+XuXU.a.<.< <.2.C.eXxXCXGXGXcXlX5XDXNXlXlXDXCXnXmXDXCXcXlXcXDXDX",
"AXDXDXDXDXCXCXCXlXGXOXOXGXtXOXzXV.3 - ) _ s s s u K U N k N A A S k U M u y t [ [.%XXXXXXXXX,XwXcXcXcXGXDXGXAXNXbXbXbXCXDXCXnXmXDXcXlXlXDXDXDX",
"AXAXDXDXDXCXCXCX0XGXcX7X}.}.J.3 > 3 X...] e r q i p K A N b b n N Y R h J W 7 i G.rX%XXX>XoXdXxXlXlXlXGXGXxXcXDX7XlXAXDXDXCXnXmXcXcXcXcXDXDXDX",
"AXAXDXDXDXCXCXCXcXlX6XGX`.4 4 V.W.-X=X{.'. XK.[ ^ i 9 I Y C b M N S A b U R M p ] [.@XeXjXfXDXbXAXDXDXDXmX0X0XlX7XbXDXDXDXcXlXmXlXcXDXDXDXDXDX",
"AXAXDXDXDXCXCXCXGXlXzX8XV.| .X8X=XZ. .| Z.T.%X$X6.] u J Q Q C m m m c m R C C K i G.@XiXeXkXvXvXvXlXmXnXnXmXmXCXlXNXDXDXAXbXbXCXlXcXDXDXDXDXDX",
"DXDXDXDXDXCXCXCX6XGXzX7XOXMX9X3 @ . o @   = B.rXiXG.s L ! Y C U b D b V V g R T 7 ] +XuXoXCXbXbXDXDXmXmXnXnXmXlXDXAXNXbXAXAXCXCXlXDXDXDXDXcXDX",
"DXDXDXDXDXDXDXDXDXlX5XNX7X6X* X O   . @ o . $ 5 tX+XO.a ( h b S C Z B B v n n M p i R.|.cXxXzXAXAXDXCXCXCXCXCXCXcXcXAXAXcXbXlXcXDXDXDXDXDXCXDX",
"DXDXDXDXDXDXDXDXcXlXDXDXlX4 X   O O . o o .   $ 4 9XP.e u M R g Z Z z B v n n M u t L.|.yXxXzXNXDXDXDXDXDXDXDXDXcXAXDXDXcXcXcXcXcXDXDXDXCXCXDX",
"DXDXDXDXDXDXDXDXcXcXDXlXA.    $ O O X . @ @ X   . T.'.] u 9 R g Z Z z B v n n n K t F. XcXxXzXbXDXDXDXDXDXDXDXDXDXDXDXDXCXcXCXDXcXDXDXDXDXDXDX",
"DXDXDXDXDXDXDXDXlXDX5XxX5   $ $   O o . o @ # #   | '.O.E 9 b C Z Z B B v V n m L d D.+XcXxXMXlXDXDXDXDXDXDXDXDXDXDXDXDXDXDXDXDXDXDXDXDXDXDXCX",
"DXDXDXDXDXDXDXDXlXDXlXDX% % $     % o o X X O #   3 '.O.p T A k C Z B B v V N m L d D.+XcXxXcXlXNXNXCXCXDXDXDXDXDXDXDXDXCXDXDXDXDXDXDXDXDXcXlX",
"DXDXDXDXDXDXDXDXDX5XCXDX%   $ X % % . o $ + X O   ; ].O.u P A N C Z B B B N C J L d F. XcXxXcXGXcXcXcXcXCXDXDXDXDXDXDXDXCXCXDXDXDXDXCXCXcXlXlX",
"DXDXDXDXDXDXDXDXDX5XcXlX*   $ $ % o . o $ $ O O   3 R.@.s M A C C Z B B B B Z J u d P.|.cXxXxXDXcXcXcXcXDXDXDXDXcXcXcXcXbXcXDXDXDXcXcXDXDXcXlX",
"DXDXDXDXDXDXDXDXlXDXcXcX4 X X   X @ @ o + + O O   5.'.] E K ! g C C N B B B Z J L a ].+XcXxXxXDXcXcXCXDXDXDXDXDXcXcXcXbXlXbXAXDXDXDXDXDXDXDXcX",
"DXDXDXDXDXDXDXDXlX6X5XDXA.*   * X $ $ o + # O   * [.P.i 9 M ! g Z Z C N B B Z J s ]  X9XGXmXCXDXDXDXDXDXDXDXDXDXlXlXlXlXCXDXDXDXcXlXlXlXlXcXDX",
"DXDXDXDXDXDXDXDX5XDXlXlXDXB.$   &   . & +   O $ Z.+XD.i L M R S Z Z C N B Z I P d .. XtXGXCXDXGXDXDXcXlXcXcXCXAXlXlXlXcXDXDXDXDXCXcXlXlXbXCXDX",
"DXDXDXDXDXDXDXDXlXcXlXlXDXlXB.*   o o @ X   * B.tX+X] p W h S G Z Z C N N Z I L q D.+XGXGXDXNXlXDXDXcXcXcXCXDXDXcXcXmXcXDXDXDXDXCXCXcXcXcXDXDX",
"DXDXDXDXDXDXDXDXDX5XlXcX5XDXcXA.4 * $ & * 4 `.cX+XR.a p P k S k j Z C n C C I L a P.9XGXGXGXlX7XDXDXcXcXCXDXDXDXcXmXmXcXAXDXDXDXDXCXcXcXcXDXDX",
"DXDXDXDXDXDXDXDXlXDXDXcXcXlXlXDXDXsX`.W.bXDX6XOX'.G.t L I B S k z j C m C C J p [ |.iXCXcXNXzX7XcXcXcXcXDXDXcXcXcXcXcXcXAXDXDXAXCXcXcXcXcXDXDX",
"DXDXDXDXDXDXDXDXcXcXDXDXlXcXcX5XDXsXAXDX5X6XMXtX|...t P Y B B G z z C n C C J p 6.@XiXmXcXAXzXzXcXcXCXDXDXDXDXcXDXDXDXDXDXDXDXDXcXcXcXcXcXDXDX",
"DXDXDXDXDXDXDXDXDX5XcXDX5XcXDX6XlXDXNXNXDX7XOXtX'.' y P Z G v G z z C n m m K i P.@XwXgXCXNXzXDXDXDXDXDXDXDXDXDXDXDXDXDXDXDXDXDXDXDXDXDXDXDXDX",
"DXDXDXDXDXDXDXDXlXDXcXlXDXlX5XlXAXAXDXlXlXcXcX@XK.q E I j G k G x z N n n m K i [.@XxXjXDXbX7XGXDXAXCXAXDXDXDXDXDXDXCXCXDXGXCXcXCXCXCXDXDXDXDX",
"DXDXDXDXDXDXDXDXDXDXDXDXDXDXDXDXzXbXnXjXhXgXiX+XL.8 W k Q l Q j x z V c D F 0 O.[.cXnXkXDXlXCXxXcXAXvXbXsXDXCXcXDXDXCXlXlXCXCXlXxXxXmXxXnXgXnX",
"DXDXDXDXDXDXDXDXDXDXDXDXDXDXDXDXzXbXnXjXhXjX7X+XG.i m k G l Q Y H j S c F 9 0 O.|.GXCXnXAXlXxXwX5XsXbXDXAX5X5XDXcXcXDXDXDXlX7X6X6X6X}.lXNXlXlX",
"DXDXDXDXDXDXDXDXDXDXDXDXDXDXDXDXzXMXnXjXjXmX8X Xo.s M N k k C I I C D c b c 9 +.'.aXlXDXAXbXAXGXDXDXlX5XnXCXDXlXDXzX9X8X9X*X*X8X=X9XQ.{.{.Q.H.",
"DXDXDXDXDXDXDXDXDXDXDXDXDXDXDXDXzXMXCXnXmXCX8X XD.i K A N N n m J I U b Z C T +. XbXpXCXbXbXaXzXgXxXmXCX5X6X6XzX9X9XaXaX-XJ.F.e.> } { { } e.} ",
"DXDXDXDXDXDXDXDXDXDXDXDXDXDXDXDXcXMXCXnXCXbXaX XL.6 W U b n n n I I I j x H P @.'.zX;XjXkXvXdXdXoXjXwX0X}.NXaX=X=X.XV.{ 3 3  .| V.W.`.W.8XaXbX",
"DXDXDXDXDXDXDXDXDXDXDXDXDXDXDXGXcXcXCXCXCXbXaX-XQ.d p K m b n n U Y j z x z ~ s P.9X0XjXjXjXgXgXqXmX0XzX8XaXJ.e.- { e.H..XaXAXbXzXNXNXzXDXOX5X",
"DXDXDXDXDXDXDXDXDXDXDXDXDXDXDXGXcXcXcXmXCXAXaX*X{.O.t p T c c V I Y j x x z I u D.].tXxXxXeXeXoXxXOXzXzX.X} { { {. X=XaXaXdX0X;XmXlXdXCXDX5XlX",
"DXDXDXDXDXDXDXDXDXDXDXDXDXDXDXGXcXcXcXxXnXCXvX=X XP.q s W h c N C S B G G z Y K 8 6.'.+XuX$XuXiX9X9X.X3 3 } {.-X*X9X8XNXCXgXjXmXmXCX5XCX0XCXCX",
"DXDXDXDXDXDXDXDXDXDXDXDXDXDXDXGXcXcXcXxXjXjXmXbX*X*Xo.f E U g G g c v v v v N m u i ] D.P.].[.P.H.X.> } .XaXzXGXxXxXmXmXnXnXnXCXDXAXAXDXDXDXAX",
"DXDXDXDXDXDXDXDXDXDXDXDXDXDXDXDXMXcXcXxXgXjXjXmXzX8XH._ y W k g D D V v c c c b U M p / e - r ` - X.H.{.aXzX0XgXfXfXhXjXmXnXAXAXAXAXAXAXAXDXAX",
"DXDXDXDXDXDXDXDXDXDXDXDXDXDXDXDXNXMXcXxXgXgXhXjXmXbX XD.a u P U c v B S S V N N Z R P u a ] ' r F.{.aXaX8XdXgXjX3XfXhXjXmXCXbXbXDXCXCXCXCXCXCX",
"DXDXDXDXDXDXDXDXDXDXDXDXDXDXDXDXGXDXCXxXgXgXgXjXjXlXbX Xr.a p K m b k g g b M M h J L p e r o.'.*XbXzX7XlXnXjXfXjXjXjXmXCXAXbXbXDXCXCXCXCXCXCX",
"DXDXDXDXDXDXDXDXDXDXDXDXDXDXDXDXDXCXGXcXcXxXgXmXjXkXlXbX XF.' q u 9 J P T L p u u E w r 5.].+X9XOXdXlXCXDXCXlXlXbXCXAXAXDXDXCXCXAXAXAXAXAXAXAX",
"DXDXDXDXDXDXDXDXDXDXDXDXDXDXDXDXCXCXDXMXcXuXcXmXjXnXvX7XzX XK.6.^ a p y d a a w w ^ ..P.iXtX9X8XCXnXnXCXCXsXsXAXbXbXAXAXDXDXCXCXAXAXAXAXAXAXAX",
"DXDXDXDXDXDXDXDXDXDXDXDXDXDXDXDXmXmXCXMXtXtXtXcXvXnXjXpXlXzXtX@XJ.F...' ` ' ....6.P.$XuXwXgXAXsXvXvXpXvXAXbXsXbXAXAXDXDXDXCXCXCXAXAXAXDXDXDXDX",
"DXDXDXDXDXDXDXDXDXDXDXDXDXDXDXDXmXmXcXzXtXtXtXzXCXkXkXnXmXxXcXiXuX@X|.'. X|.+X+X@X@XcXxX,X3XCXAXAXAXbXsXAXAXbXAXAXAXDXDXDXCXDXCXDXDXDXDXDXDXDX",
"DXDXDXDXDXDXDXDXDXDXDXDXDXDXDXDXDXDXDXDXGXGXDXDXDXDXCXDXDXDXDXGXMXMXzXzXzXzXMXMXGXGXGXGXCXCXDXDXDXDXDXDXDXDXDXDXDXDXDXDXDXDXDXDXDXDXDXDXDXDXDX",
"DXDXDXDXDXDXDXDXDXDXDXDXDXDXDXDXDXDXDXDXDXDXDXDXDXDXDXDXDXDXDXDXDXDXDXDXDXDXDXDXDXDXDXDXDXDXDXDXDXDXDXDXDXDXDXDXDXDXDXDXDXDXDXDXDXDXDXDXDXDXDX",
"DXDXDXDXDXDXDXDXDXDXDXDXDXDXDXDXDXDXDXDXDXDXDXDXDXDXDXDXDXDXDXDXDXDXDXDXDXDXDXDXDXDXDXDXDXDXDXDXDXDXDXDXDXDXDXDXDXDXDXDXDXDXDXDXDXDXDXDXDXDXDX",
"DXDXDXDXDXDXDXDXDXDXDXDXDXDXDXDXDXDXDXDXDXDXDXDXDXDXDXDXDXDXDXDXDXDXDXDXDXDXDXDXDXDXDXDXDXDXDXDXDXDXDXDXDXDXDXDXDXDXDXDXDXDXDXDXDXDXDXDXDXDXDX",
"DXDXDXDXDXDXDXDXDXDXDXDXDXDXDXDXDXDXDXDXDXDXDXDXDXDXDXDXDXDXDXDXDXDXDXDXDXDXDXDXDXDXDXDXDXDXDXDXDXDXDXDXDXDXDXDXDXDXDXDXDXDXDXDXDXDXDXDXDXDXDX",
"DXDXDXDXDXDXDXDXDXDXDXDXDXDXDXDXDXDXDXDXDXDXDXDXDXDXDXDXDXDXDXDXDXDXDXDXDXDXDXDXDXDXDXDXDXDXDXDXDXDXDXDXDXDXDXDXDXDXDXDXDXDXDXDXDXDXDXDXDXDXDX",
"DXDXDXDXDXDXDXDXDXDXDXDXDXDXDXDXDXDXDXDXDXDXDXDXDXDXDXDXDXDXDXDXDXDXDXDXDXDXDXDXDXDXDXDXDXDXDXDXDXDXDXDXDXDXDXDXDXDXDXDXDXDXDXDXDXDXDXDXDXDXDX"
};
