/* XPM */
static const char *doc__[] = {
/* columns rows colors chars-per-pixel */
"48 48 10 1",
"  c black",
". c blue",
"X c #008080",
"o c #800000",
"O c red",
"+ c #808000",
"@ c yellow",
"# c #808080",
"$ c #C0C0C0",
"% c None",
/* pixels */
"%%%%%%%%%%%%%%%%%%%%%%%%%%%%%%%%%%%%%%%%%%%%%%%%",
"%%%%%%%%%%%%%%%%%%%%%%%%%%%%%%%%%%%%%%%%%%%%%%%%",
"%%%%%%%%%%%%%%            %%%%%%%%%%%%%%%%%%%%%%",
"%%%%%%%%%%%%                %%%%%%%%%%%%%%%%%%%%",
"%%%%%%%%%%%                   %%%%%%%%%%%%%%%%%%",
"%%%%%%                         %%%%%%%%%%%%%%%%%",
"%%%%                           %%%%%%%%%%%%%%%%%",
"%%%                            %%%%%%%%%%%%%%%%%",
"%%                      #+#+#  %%%%%%%%%%%%%%%%%",
"%                     +#+#+#+ %%%%%%%%%%%%%%%%%%",
"%                     #+#+#+# %%%%%%%%%%%%%%%%%%",
"                +$+$+ +#+#+# #%%%%%%%%%%%%%%%%%%",
"               +$+$+$ #+#+#+ #%%%%%%%%%%%%%%%%%%",
"              +$+$+$$ +#+    #%%%%%%%%%%%%%%%%%%",
"             +$+$+$+$ #+# #+# %%%%%%%%%%%%%%%%%%",
"            +#+$+$+$  +#+#+#+ %%%%%%%%%%%%%%%%%%",
"            #+$+$     #+#+#+# %%%%%%%%%%%%%%%%%%",
"        +$+#+$+$+ +$+ +#+#+#+# %%%%%%%%%%%%%%%%%",
"       +$+$+$+$+$+$+$ #+#+#+#+ %%%%%%%%%%%%%%%%%",
"       $$$+$+$$$$$+$+ +#+#+#  %%%%%%%%%%%%%%%%%%",
"       +$+#+$+$$$+$+$+ +#+#+ %%%%%+++++++++%%%%%",
"%      #$$+$+$+$$$+$+$ #+#+  %%%%+@@@@@@@@ +%%%%",
"%%       +$+#+$+$+$+  #+#+#+ %%%+@@@@@@@@@@ +%%%",
"%%        +$+#+$+$+$ #+#+#+# %%+@@@@@@++ +@@ +%%",
"%%%       $+$+$+$+#+ +#+#+#+ %+@@#$@@@+ # +@@ +%",
"%%%%     #+$+$+$+$+$        %%+@@$o$@@+ #% +@+ +",
"%%%%%  +#+$+$+$+$+$$ +# %%%%%%+@@@$ $@+ #%% @+ +",
"%%%%%  #+$+#+#+$+$+$ #+ %%%%%%+@#@@$o$@+   +@+ +",
"%%%%%  +$+$+#       #+# %%%%%% @ #@@$ $@$$$$@+ +",
"%%%%  +$+$+$+$+# #+#+#+# %%%%% @@ #@@$o$@@@@@+ +",
"%%%   $+$+$+$+#+ +#+#+#+# %%%% @@@ #@@$ $@@@@+ +",
"%%  . +$+$+$+$+$   o+#+#+# %%% @ @@ #@@$o$@@@+ +",
"%  .. #+$+$+$+$+# oooooooo     @@ @@ #@@$#@@@+ +",
"  ....  +#+$+$+$+  ooOoOo     @@@@ @@ #@@@@@+  +",
" X......   +#+$+      oo   @@@@# @@@@@@@@@@+  +%",
"  X........      .         @+@# $@@#+++++++  +%%",
".  X...............        @@# $@@          +%%%",
"%.   XXX............    @@@@# $@@  +++++++++%%%%",
"%%%.    .XXXXX.......   @+@# $@@  +%%%%%%%%%%%%%",
"%%%%%%.     ..XXXXXX. @@+@# $@@  +%%%%%%%%%%%%%%",
"%%%%%%%%%..           @+@# $@@  +%%%%%%%%%%%%%%%",
"%%%%%%%%%%%%%%%%%%%%% @@# $@@  +%%%%%%%%%%%%%%%%",
"%%%%%%%%%%%%%%%%%%%%%  @ $@@  +%%%%%%%%%%%%%%%%%",
"%%%%%%%%%%%%%%%%%%%%%   @@@  +%%%%%%%%%%%%%%%%%%",
"%%%%%%%%%%%%%%%%%%%%%%      +%%%%%%%%%%%%%%%%%%%",
"%%%%%%%%%%%%%%%%%%%%%%%    +%%%%%%%%%%%%%%%%%%%%",
"%%%%%%%%%%%%%%%%%%%%%%%%%%%%%%%%%%%%%%%%%%%%%%%%",
"%%%%%%%%%%%%%%%%%%%%%%%%%%%%%%%%%%%%%%%%%%%%%%%%"
};
