/* XPM */
static const char *doc__[] = {
/* columns rows colors chars-per-pixel */
"32 32 10 1",
"  c black",
". c blue",
"X c #800000",
"o c red",
"O c #808000",
"+ c yellow",
"@ c #808080",
"# c #C0C0C0",
"$ c gray100",
"% c None",
/* pixels */
"%%%%%%%%%%%%%%%%%%%%%%%%%%%%%%%%",
"%%%%%%%%%%%%%%%%%%%%%%%%%%%%%%%%",
"%%%%%%%%%         %%%%%%%%%%%%%%",
"%%%%%%%             %%%%%%%%%%%%",
"%%%%                 %%%%%%%%%%%",
"%%                   %%%%%%%%%%%",
"%               O#O  %%%%%%%%%%%",
"%              @#O# %%%%%%%%%%%%",
"           O## O## @%%%%%%%%%%%%",
"          O#$# @X  O%%%%%%%%%%%%",
"         O###  O @# %%%%%%%%%%%%",
"        O##X   ###O %%%%%%%%%%%%",
"      O#### ## @###O %%%%%%%%%%%",
"     #####$##$ O@O  %%%%%%%%%%%%",
"     ###O##$### O@X%%%%OOOOOO%%%",
"%     ###O###  O@# %%%O+++++@O%%",
"%      #####OXO@O# %%O+++@ ++@O%",
"%%    ######$     %%O+#++ @ ++@O",
"%%%  #O#@O@## O %%%%O+O + @% + O",
"%%%  O#O X X O@ %%%%O++O @  @+ O",
"%%  O#O#@O  O@#O %%% + +O ++++ O",
"%   ###O#@ X@O@#O %% +O +O +++ O",
"% .. @O#O#O  @#O@oX  ++O +O++@ O",
" ....  O@O   XXXoX  + ++++++@ O%",
"   ....   ..  XXX +# +@      O%%",
"@    ........  X  # +@ OOOOOO%%%",
"%%@      .....  +# +@ O%%%%%%%%%",
"%%%%%@@        +# +@ O%%%%%%%%%%",
"%%%%%%%%%%%%%% # +@ O%%%%%%%%%%%",
"%%%%%%%%%%%%%%  @@ O%%%%%%%%%%%%",
"%%%%%%%%%%%%%%%   O%%%%%%%%%%%%%",
"%%%%%%%%%%%%%%%%%%%%%%%%%%%%%%%%"
};
