/* XPM */
static const char *doc__[] = {
/* columns rows colors chars-per-pixel */
"16 16 11 1",
"  c black",
". c navy",
"X c blue",
"o c #800000",
"O c red",
"+ c #808000",
"@ c yellow",
"# c #808080",
"$ c #C0C0C0",
"% c gray100",
"& c None",
/* pixels */
"&&&        &&&&&",
"&           &&&&",
"        +#  &&&&",
"     $$ #$ &&&&&",
"    $$% +  &&&&&",
"  $$$$  $+##&&&&",
"  $$$%$$ # &&&&&",
"&  $+$$ #$ ++++&",
"&& #$$$   +@@@++",
"& $$#   &&+@+ @ ",
"   $$ ooO&+@@+@ ",
" XX     o @ @@ +",
" XXXXXXX @ @  +&",
"&& XX.. @ @ +&&&",
"&&&&&&& +@ +&&&&",
"&&&&&&&&  +&&&&&"
};
