/* XPM */
static const char *doc__[] = {
/* columns rows colors chars-per-pixel */
"16 16 22 1",
"  c black",
". c #040404",
"X c #330000",
"o c #333300",
"O c #666600",
"+ c navy",
"@ c blue",
"# c #0099FF",
"$ c #800000",
"% c #996600",
"& c red",
"* c #CC9900",
"= c #CC9933",
"- c #CCCC33",
"; c yellow",
": c #FFCC66",
"> c #808080",
", c #ADA990",
"< c #FFFF99",
"1 c #C0C0C0",
"2 c #EAEAEA",
"3 c None",
/* pixels */
"333        33333",
"3        .  3333",
"      . ,=  3333",
"     :1 =: 33333",
"   .:1: ,  33333",
"  1:1:  =,=>3333",
"  :1:2:,o: 33333",
"3  :1:, =, %O %3",
"33 1=1:   %<<; %",
"3 1=>   33O<O ; ",
"   1= $$&3%;;%; ",
" #@     $ ;o-; O",
" @#@@@@@o<X*X O3",
"33 ##++ <X-XO333",
"3333333 -*XO3333",
"33333333 XO33333"
};
