/* XPM */
static const char *doc__[] = {
/* columns rows colors chars-per-pixel */
"32 32 24 1",
"  c black",
". c #333300",
"X c #663300",
"o c #666600",
"O c blue",
"+ c #006699",
"@ c #800000",
"# c #996600",
"$ c #FF6600",
"% c #808000",
"& c #999900",
"* c #999933",
"= c #CC9933",
"- c #CCCC00",
"; c #CCCC33",
": c yellow",
"> c #FFCC66",
", c #FFFF66",
"< c #808080",
"1 c #ADA990",
"2 c #FFFF99",
"3 c #C0C0C0",
"4 c #EAEAEA",
"5 c None",
/* pixels */
"55555555555555555555555555555555",
"555555555         55555555555555",
"5555555..           555555555555",
"5555     ...         55555555555",
"55          ..       55555555555",
"5             . =1=  55555555555",
"5              =1>1 555555555555",
"           =1> 1=1.X555555555555",
"          =3>3 =   X555555555555",
"         =3>3. 1 3= 555555555555",
"        =1>    >3=1 555555555555",
"      3=1>3 1> 1>3=1 55555555555",
"     3>3>4>4>3 =1=  555555555555",
"     >3>1>4>3>3 =1 555#o#o#o#555",
"5     >1>1>3>  =1> 55#*22222.#55",
"5      >3>1=1 =1=1 5#*2,,% ;:.#5",
"55    =3>3>3>     55.2;:: % ;:.#",
"555  =3=<=<>< = 5555.,;X, %5 , o",
"555  3>1     =< 5555 #2;.#  #: o",
"55  3>3=<= <=1=< 555 :.:;.,,:: o",
"5   >3>1=< @@=<@$ 55 #2X:;X;;, o",
"5 OO  3>1=< @@@$@    :#2.:;;,* o",
" O+OOO  ><       %# :.,#:#::* o5",
"   O+OOO   O     .:-.2#      o55",
"O    O+OOOOOO   . -.2# ..X.Xo555",
"55O      O+++O  :-.2# .555555555",
"55555+O        :-.2# .5555555555",
"55555555555555 -.2# .55555555555",
"55555555555555  &# .555555555555",
"555555555555555   .5555555555555",
"55555555555555555555555555555555",
"55555555555555555555555555555555"
};
