/* XPM */
static const char *doc_xpm[] = {
/* columns rows colors chars-per-pixel */
"48 48 42 1",
"  c black",
". c #040404",
"X c gray3",
"o c #111111",
"O c #000033",
"+ c #330000",
"@ c #333300",
"# c #660000",
"$ c #663300",
"% c #666600",
"& c #0000CC",
"* c blue",
"= c #3333FF",
"- c #0066FF",
"; c #3366FF",
": c #0099FF",
"> c #990000",
", c #993300",
"< c #996600",
"1 c #CC0000",
"2 c #CC3300",
"3 c #808000",
"4 c #999900",
"5 c #999933",
"6 c #CC9900",
"7 c #CC9933",
"8 c #CCCC00",
"9 c #CCCC33",
"0 c #FFCC00",
"q c #FFCC33",
"w c yellow",
"e c #FFFF33",
"r c #CCCC66",
"t c #FFCC66",
"y c #FFFF66",
"u c #808080",
"i c #868686",
"p c #ADA990",
"a c #FFFF99",
"s c #C0C0C0",
"d c #EAEAEA",
"f c None",
/* pixels */
"ffffffffffffffffffffffffffffffffffffffffffffffff",
"ffffffffffffffffffffffffffffffffffffffffffffffff",
"ffffffffffffff            ffffffffffffffffffffff",
"ffffffffffff                ffffffffffffffffffff",
"fffffffffff                   ffffffffffffffffff",
"ffffff     @@@@                fffffffffffffffff",
"ffff           @@@@            fffffffffffffffff",
"fff               @@@          fffffffffffffffff",
"ff                  @   <i<i<  fffffffffffffffff",
"f                     i<p7pti ffffffffffffffffff",
"f                     <p7ptp7 ffffffffffffffffff",
"                u7u7u i7ptpti$ffffffffffffffffff",
"               u7sts7 <p7p7i@$ffffffffffffffffff",
"             .u7ststs i7i    $ffffffffffffffffff",
"             u7ststs7 <p$ 7p7 ffffffffffffffffff",
"            u7ststs7@ i7p7p7p ffffffffffffffffff",
"            7ptst     <ptptp7 ffffffffffffffffff",
"        u7u7ptptp utp i7ptp7p7@fffffffffffffffff",
"       p7stststdtptst <p7p7p7p fffffffffffffffff",
"       7s7ststdtdtsts i7p7p7  ffffffffffffffffff",
"       ptptptstdtdtstp@i7p<i fffff5%<%<%<%5fffff",
"f      7ptptptstststst 7p7i$ ffff<5aaaaaaa@<ffff",
"ff     @@p7ptptptstp  <i7p7p fff<5aaaaaaaaa@<fff",
"ff      @@ptptptsts7 <i7p7pt ff<5aaaay93 9ey@<ff",
"fff     @@7ptptptp7p i<i7i7i f<5aayyyy9 3 9wy@<f",
"ffff   .@7ptptststs7        ff@waw5tyt9 3f 9w9@<",
"fffff  p7p7utptststu i<Xffffff@wae5$9y9 3ff y4X%",
"fffff @7p7u7u7u7u7u7 7ioffffff@w5aq6@ty<   <y4 %",
"fffff @p7p7u<       7p7offffff w56aw5$9y9090y4 %",
"ffff  p7s7p7u7u< <i7p7p< fffff ww@5aq6@tyw0wy4 %",
"fff.  7sts7s7p7u i7p7p7p< ffff waw@6aw5$9wy0y4 %",
"ff  ; ptsts7s7u7 #>,i7p7p< fff a<aw@5aq6@0wey4 %",
"f  ;* <ptststp7u< #>,1122#     8a<aw@6aw59yyr4 %",
"  ;=*&  ptstptu7u ###>>>#     w88a<aw55aqeyr4  %",
" :;=***&   p7u7u      ##   aw885@rawawwwwwr4  %f",
"  :;=*****&      &X        w885@6aq<<%<%<%<  %ff",
"=  :;-==******&&&&&O       885@6ar+++++++++ %fff",
"f=   =:;-===******&&    a8885@6aq+ @@@$@$@$%ffff",
"fff=    =:;--=====**&   aw85@6ar+ @fffffffffffff",
"ffffff=     =-:::;--- w%w85@6aq+ @ffffffffffffff",
"fffffffff==           ww85@6ar+ @fffffffffffffff",
"fffffffffffffffffffff 5w5@6aq+ @ffffffffffffffff",
"fffffffffffffffffffff @8@6ar+ @fffffffffffffffff",
"fffffffffffffffffffff +@8aq+ @ffffffffffffffffff",
"ffffffffffffffffffffff +@@+ @fffffffffffffffffff",
"fffffffffffffffffffffff    @ffffffffffffffffffff",
"ffffffffffffffffffffffffffffffffffffffffffffffff",
"ffffffffffffffffffffffffffffffffffffffffffffffff"
};
