/* XPM */
static const char *wxappfw_2[] = {
/* columns rows colors chars-per-pixel */
"32 32 255 2 ",
"   c #39342F",
".  c #323231",
"X  c #353535",
"o  c #373737",
"O  c #3F3932",
"+  c gray22",
"@  c #3A3A39",
"#  c #3A3A3A",
"$  c #3C3C3C",
"%  c #3F3F3F",
"&  c #4F3F2B",
"*  c #7A5C1F",
"=  c #544221",
"-  c #674C29",
";  c #7E613B",
":  c gray25",
">  c #464646",
",  c #4C4B4C",
"<  c gray32",
"1  c #555656",
"2  c gray35",
"3  c #685E49",
"4  c #786648",
"5  c #7B6C59",
"6  c #606060",
"7  c #636669",
"8  c #6F6D6F",
"9  c #6D6F6F",
"0  c #6F6F6F",
"q  c #766D60",
"w  c gray44",
"e  c #727272",
"r  c #7A7675",
"t  c #72777D",
"y  c gray48",
"u  c #8A5E12",
"i  c #8D631F",
"p  c #BA7913",
"a  c #885E27",
"s  c #876127",
"d  c #926329",
"f  c #8D7337",
"g  c #A06F26",
"h  c #AD7828",
"j  c #B27522",
"k  c #B47A2C",
"l  c #AD7731",
"z  c #C77B15",
"x  c #816440",
"c  c #827053",
"v  c #A77F46",
"b  c #857660",
"n  c #847C6F",
"m  c #807F7E",
"M  c #BA9638",
"N  c #C2821C",
"B  c #E78618",
"V  c #CE8923",
"C  c #D68925",
"Z  c #CA8D35",
"A  c #D89B38",
"S  c #EC8E21",
"D  c #EE932E",
"F  c #FE972E",
"G  c #E59833",
"H  c #F09630",
"J  c #F79B35",
"K  c #FE9A32",
"L  c #FF9A34",
"P  c #FF9E36",
"I  c #F49E3A",
"U  c #FE9F39",
"Y  c #EEA039",
"T  c #F2A53E",
"R  c #FFA23A",
"E  c #FFA439",
"W  c #FEA23C",
"Q  c #FFA53F",
"!  c #A58647",
"~  c #BD9347",
"^  c #A8875C",
"/  c #B89352",
"(  c #92856A",
")  c #92887E",
"_  c #B7956B",
"`  c #C6924D",
"'  c #CAA746",
"]  c #D5AC49",
"[  c #C9A257",
"{  c #EBA643",
"}  c #E5AE4C",
"|  c #E9AF4A",
" . c #F2A842",
".. c #FFA843",
"X. c #FFAA44",
"o. c #FFAD47",
"O. c #F5B247",
"+. c #F7B64C",
"@. c #FFB14B",
"#. c #FFB549",
"$. c #F8B14C",
"%. c #FFB34D",
"&. c #FBB44E",
"*. c #FFB54F",
"=. c #E7AA53",
"-. c #EFBA53",
";. c #FAB650",
":. c #F5BC56",
">. c #FFB952",
",. c #FFBD53",
"<. c #FFBB55",
"1. c #FFBC57",
"2. c #FFB05B",
"3. c #CB9D61",
"4. c #C1AC6D",
"5. c #D7BC6A",
"6. c #DBA674",
"7. c #D8B37A",
"8. c #EDB462",
"9. c #E8B075",
"0. c #F9BB78",
"q. c #E8C25F",
"w. c #FFC05A",
"e. c #FCC35D",
"r. c #FBC95F",
"t. c #D9C169",
"y. c #E5CA67",
"u. c #FFC361",
"i. c #FECC63",
"p. c #F9CC66",
"a. c #FFC46B",
"s. c #F1CB6B",
"d. c #FDD36A",
"f. c #FFCA78",
"g. c #F5D670",
"h. c #FBD375",
"j. c #FFD870",
"k. c #FFDC70",
"l. c #FFD974",
"z. c #FFDD76",
"x. c #FBD57E",
"c. c #FFDD78",
"v. c #F6E17A",
"b. c #FFE57D",
"n. c #7D7D86",
"m. c #7E95AB",
"M. c #848484",
"N. c #848288",
"B. c #85888B",
"V. c #8E8D8C",
"C. c #848798",
"Z. c #939393",
"A. c #949291",
"S. c #919195",
"D. c #939495",
"F. c gray58",
"G. c #949697",
"H. c #979797",
"J. c #94999F",
"K. c #9A9A9A",
"L. c #999A9C",
"P. c #9B9B9C",
"I. c #999B9E",
"U. c #9C9D9D",
"Y. c #9F9F9F",
"T. c #BDB88B",
"R. c #A1A09F",
"E. c #8A8BA3",
"W. c #8E9BA5",
"Q. c #9C9EA1",
"!. c #9897AC",
"~. c #9799BE",
"^. c #8EA3B7",
"/. c gray64",
"(. c #A4A4A3",
"). c #A4A4A4",
"_. c #A7A7A7",
"`. c #A4A4AA",
"'. c #A9A9A9",
"]. c gray67",
"[. c gray68",
"{. c #ADAEAF",
"}. c #AFAFAF",
"|. c #A7ABB3",
" X c #ADB0B6",
".X c #B2B2B3",
"XX c #B4B2B0",
"oX c gray71",
"OX c #B6B6B6",
"+X c #B4B7BE",
"@X c #B9B9B9",
"#X c #BBBBBB",
"$X c #BCBCBC",
"%X c #BEBEBF",
"&X c #D4B189",
"*X c #D6D18F",
"=X c #FFC985",
"-X c #EBC49D",
";X c #EED490",
":X c #FDD49C",
">X c #FEE583",
",X c #FFED86",
"<X c #F3ED8C",
"1X c #FEF78F",
"2X c #FBED97",
"3X c #FFF992",
"4X c #FFFB95",
"5X c #FFFF9B",
"6X c #E4C5A4",
"7X c #EDDFB6",
"8X c #FFEFA1",
"9X c #FFFDA1",
"0X c #FEEBB6",
"qX c #FFF9BC",
"wX c #9C9ED0",
"eX c #9FA2DA",
"rX c #9CBDDC",
"tX c #A7AACD",
"yX c #BABDC7",
"uX c #A5A6D2",
"iX c #BCBCD2",
"pX c #B9C8D8",
"aX c #9AC3EB",
"sX c #B0CFED",
"dX c #C1C1C1",
"fX c gray76",
"gX c #C6C5C5",
"hX c #C8C8C8",
"jX c #CCCBCC",
"kX c #CECECE",
"lX c #CECFD1",
"zX c #D2D2D2",
"xX c gray83",
"cX c gray84",
"vX c #D3D7DB",
"bX c gray86",
"nX c #E0DEDD",
"mX c #FDE4C4",
"MX c #FFFDCB",
"NX c #FFFFD5",
"BX c #D8DCE1",
"VX c #DCE0E5",
"CX c gray89",
"ZX c #E6E7E7",
"AX c #EAE5E1",
"SX c #EAEAEA",
"DX c gray93",
"FX c #FDF8E9",
"GX c #E9EDF1",
"HX c #F2F2F1",
"JX c gray96",
"KX c #FFFFF3",
"LX c #F9F9F8",
"PX c white",
"IX c None",
/* pixels */
"IXIXIXIXIXIXIXIXIX).).).).IXIXIXIXIXIXIXIXIXIXIXIXIXIXIXIXIXIXIX",
"IXIXIXIXIXIXG.J.|.yXlXjX+X`.S.L.IXIXIXmXmXIXIXIXIXIXIXIXIXIXIXIX",
"IXIXIXIXL.^.sXpX|.Q.Y.L.Q.|.yXiX!.N.7.>X>X$.9.IXIXIXIXIXIXIXIXIX",
"IXIXIXY.rXsXt , @ X % : : % , 9 !.tXC.*Xb.Q C ) IXIXIXIXIXIXIXIX",
"IXIXL.^.sX7 X > G.zXxX@X'.L.) ` T.C.uXn.=.R J x IXIXIXIXIXIXIXIX",
"IXIXL.aXrX> 2 xX.XL.(.$XlX6X=XqXNXT.E.~.^ E W k IXIXIXIXIXIXIXIX",
"IXIXL.m.m.9 ).$XbXDXGXnX0.:XNXMX2X1Xn.eXb K ..Y 5 IXIXIXIXIXIXIX",
"IXIXL./.gXSXPXLXZXvX6X0.mXKX0Xa.k.<Xn.wXc S ..&.d IXIXIXIXIXIXIX",
"IXIX).HXPXDXzX.XR.6.=XFXKX:XW #.y.( ~.C.s B Q w.Z ) IXIXIXIXIXIX",
"IXIX).ZXJXdX).J._ f.KXFX0.F K ` n ~.~.3 ! :X..1.:.; IXIXIXIXIXIX",
"IXIX).bXDX@X/.D.m 8.3Xb.F K D 5 tX!.4 4.0X2.R w.:.a IXIXIXIXIXIX",
"IXIX).kXHX@XY.A.W.6Xd.3X%.F P v q f *X8X1.P Q { s   IXIXIXIXIXIX",
"IXIXIX$XDXoXK.).e r =.,Xl.L P Y M 2X9Xj.>.U J a X IXIXIXIXIXIXIX",
"IXIXIX$XZXoXK.oX@XBX-Xr.,Xo.L *.>X5X1Xl.;.p I k V.IXIXIXIXIXIXIX",
"IXIXIXoXCX.XR.gXSXPXAX8.b.i.L %.l.4X3Xj.<.p V  .x IXIXIXIXIXIXIX",
"IXIXIXoXnX@X[.kXJXPXVX&Xr.c...@.l.5Xv.d.w.H p +.h IXIXIXIXIXIXIX",
"IXIXIX$XxX$X$XCXHXjX[.XX=.l.e.@.z.q.j s.l.U z A | 4 IXIXIXIXIXIX",
"IXIXIXIXY.$X.X'.9 e @X X_ +.i.,.A - O ' 3XX.D N e.g IXIXIXIXIXIX",
"IXIXIXIXIXe 1 X @ m zX[.V.( 3.l & % IX7.<Xu.W C | } 5 IXIXIXIXIX",
"IXIXIXIXIXIXIXIXIXoXxX'.G.B.+X, < IXIXIX/ k } s.C p.i IXIXIXIXIX",
"IXIXIXIXIXIXIXIXIXgXdX[.Y.M.$X1 IXIXIXIXIXb 5.8XC -.] c IXIXIXIX",
"IXIXIXIXIXIXIXIXIXIXZ.M.$XV.dX6 IXIXIXIXIX[ t.x.O.G g.s IXIXIXIX",
"IXIXIXIXIXIXIXIXIXIXIX'.nXV.dXe y IXIXIXIXIX_ M 0XG p.' n IXIXIX",
"IXIXIXIXIXIXIXIXIXIX[.xXxXG.hXm 2 IXIXIXIXIXIX[ MXO.T v.* IXIXIX",
"IXIXIXIXIXIXIXIXIXIXIXM.kXR.hXG.< IXIXIXIXIXIX[ ;Xh.I z.M M.IXIX",
"IXIXIXIXIXIXIXIXIXIXIXR.HX[.dX'.@ IXIXIXIXIXIX[ u 7X=X>.t.: IXIX",
"IXIXIXIXIXIXIXIXIXIXdXjXDX'.$XoX% IXIXIXIXIXIXIX/ FX2X,X' @ IXIX",
"IXIXIXIXIXIXIXIXIXIXIXG.gXdXoXkX% IXIXIXIXIXIXIX~ 7.y.y.* X IXIX",
"IXIXIXIXIXIXIXIXIXIXIX).nXzX.XxX> IXIXIXIXIXIXIXIX3 = = . M.IXIX",
"IXIXIXIXIXIXIXIXIXIXIXoXPXnXbX$X@ IXIXIXIXIXIXIXIXIXIXIXIXIXIXIX",
"IXIXIXIXIXIXIXIXIXIXIX'.dXSXSX9 . IXIXIXIXIXIXIXIXIXIXIXIXIXIXIX",
"IXIXIXIXIXIXIXIXIXIXIXIXy e 1 X 9 IXIXIXIXIXIXIXIXIXIXIXIXIXIXIX"
};
