/* XPM */
static const char *wxappfw_3[] = {
/* columns rows colors chars-per-pixel */
"16 16 138 2 ",
"   c #313131",
".  c #343130",
"X  c gray24",
"o  c #3E3E3E",
"O  c #443A2D",
"+  c #4F483B",
"@  c #735C31",
"#  c #454546",
"$  c gray30",
"%  c #4E4E4E",
"&  c gray31",
"*  c #4E4E50",
"=  c #505050",
"-  c #535353",
";  c gray33",
":  c gray35",
">  c #5C5B59",
",  c #5D5D5D",
"<  c #625B54",
"1  c #786246",
"2  c #7A6D5A",
"3  c #626262",
"4  c gray45",
"5  c #76797F",
"6  c #946C31",
"7  c #9F7B34",
"8  c #9D7839",
"9  c #967F5C",
"0  c #887F71",
"q  c #BE802B",
"w  c #BF8036",
"e  c #B7873C",
"r  c #DB912A",
"t  c #C78531",
"y  c #CC873B",
"u  c #D58B32",
"i  c #DB8C37",
"p  c #E39A33",
"a  c #B08A40",
"s  c #B68857",
"d  c #BBA65C",
"f  c #928472",
"g  c #928A77",
"h  c #B0A569",
"j  c #BFA076",
"k  c #D4934B",
"l  c #D6A240",
"z  c #D3A755",
"x  c #D5AE5C",
"c  c #E9A846",
"v  c #FFAC43",
"b  c #FFAF49",
"n  c #FFAB4D",
"m  c #EEB24C",
"M  c #FFB147",
"N  c #FFB749",
"B  c #F9B551",
"V  c #FFBA54",
"C  c #CCAC6D",
"Z  c #DEB366",
"A  c #CDB071",
"S  c #E6B167",
"D  c #FFC253",
"F  c #FDC25D",
"G  c #D4C177",
"H  c #FFCC61",
"J  c #E9C570",
"K  c #EBC47E",
"L  c #FDCA73",
"P  c #FFCA72",
"I  c #F6D872",
"U  c #7E83A0",
"Y  c #898989",
"T  c #8E8E8E",
"R  c #959089",
"E  c #969089",
"W  c #83859B",
"Q  c #929496",
"!  c #97999B",
"~  c #868BAB",
"^  c #889CAE",
"/  c #979BA0",
"(  c #A2A2A2",
")  c #A2A4A6",
"_  c gray65",
"`  c #A5A9A3",
"'  c #A2A0AB",
"]  c #A4AAAF",
"[  c #A9A9AA",
"{  c #A9A9AE",
"}  c #A2A4B1",
"|  c #A1ABB6",
" . c #AAADB0",
".. c #B0AFB2",
"X. c #B1B1B1",
"o. c #B3B4B5",
"O. c #B4B4B4",
"+. c #B7B7B7",
"@. c #BBBBBB",
"#. c #B8BABC",
"$. c #BEBABC",
"%. c gray75",
"&. c #D9C29B",
"*. c #E8CD9F",
"=. c #FCD193",
"-. c #FFE980",
";. c #F5E289",
":. c #FFF58C",
">. c #E6E19B",
",. c #D4C2A8",
"<. c #C2C0BC",
"1. c #D9CBBC",
"2. c #E4C9A8",
"3. c #F5D6A7",
"4. c #FBDABA",
"5. c #FFF5B1",
"6. c #FEF1B7",
"7. c #95B0CA",
"8. c #B5BBC1",
"9. c #C1C1C1",
"0. c #C5C5C6",
"q. c gray78",
"w. c #C5C7C9",
"e. c #CBCBCB",
"r. c gray80",
"t. c #CFD0D2",
"y. c #D2D2D2",
"u. c gray83",
"i. c gray84",
"p. c #D8D8D8",
"a. c #DADADA",
"s. c #DFDFDF",
"d. c #FFEBC6",
"f. c #DADCE2",
"g. c #DEDFE1",
"h. c gray88",
"j. c #EAE9E9",
"k. c None",
/* pixels */
"k.w.| ] o.{ } $.3.=.k.k.k.k.k.k.",
"t.7.Q & o * f ' ` B s k.k.k.k.k.",
"8.^ >  .<.2.6.>.~ k u Y k.k.k.k.",
"0.h.g.1.4.d.P G U w M 1 k.k.k.k.",
"y.j./ j 5.n y W g S V 6 Y k.k.k.",
"i.p.! E I N i h ;.b t O Y k.k.k.",
"s.r.X.f.*.H v :.-.p q < k.k.k.k.",
"k.+.@.[ ..Z D e a F r 8 k.k.k.k.",
"k.k.; & #.E 9 . 2 z c l 0 k.k.k.",
"k.k.k.k._ ) 5 : k.,.J m @ k.k.k.",
"k.k.k.k.@.%.T 3 k.k.C P 7 4 k.k.",
"k.k.k.k.0.0.( & k.k.&.K x 4 k.k.",
"k.k.k.k.r.e.+.# k.k.k.A d - k.k.",
"k.k.k.k.i.p.9.o k.k.k.k.+ , k.k.",
"k.k.k.k.k.T -   k.k.k.k.k.k.k.k.",
"k.k.k.k.k.k.T T k.k.k.k.k.k.k.k."
};
