/* XPM */
static const char *wxappfw_xpm[] = {
/* columns rows colors chars-per-pixel */
"48 48 217 2 ",
"   c black",
".  c #0C0C0C",
"X  c #130D02",
"o  c gray8",
"O  c #2E1D04",
"+  c #362203",
"@  c #372A1A",
"#  c #242424",
"$  c #2F2F2F",
"%  c #343434",
"&  c #3B3B3B",
"*  c #432B05",
"=  c #5B3C02",
"-  c #54350A",
";  c #553800",
":  c #4E360B",
">  c #613C0D",
",  c #754B09",
"<  c #784A13",
"1  c #624102",
"2  c #735C2E",
"3  c gray28",
"4  c #535353",
"5  c gray36",
"6  c #736B5B",
"7  c #796640",
"8  c #646464",
"9  c #6B6B6C",
"0  c #696660",
"q  c #747474",
"w  c #7B7B7B",
"e  c #72757A",
"r  c #716F6A",
"t  c #88570C",
"y  c #855212",
"u  c #955E14",
"i  c #9A6604",
"p  c #9A6506",
"a  c #9D6114",
"s  c #A46A0E",
"d  c #AA6E0A",
"f  c #A76914",
"g  c #AA7715",
"h  c #B27411",
"j  c #BD7619",
"k  c #B47114",
"l  c #8B703B",
"z  c #806633",
"x  c #AF742F",
"c  c #C67D1B",
"v  c #C47C16",
"b  c #97754B",
"n  c #867763",
"m  c #897F72",
"M  c #AB8426",
"N  c #BC9832",
"B  c #B78620",
"V  c #C7831C",
"C  c #D4841E",
"Z  c #CF8722",
"A  c #D48A24",
"S  c #DC8A24",
"D  c #D68A28",
"F  c #D7912B",
"G  c #CD9636",
"H  c #DC9936",
"J  c #D98E35",
"K  c #E48B27",
"L  c #EA912B",
"P  c #E1932D",
"I  c #F2932D",
"U  c #E69A34",
"Y  c #FF9933",
"T  c #FE9E3B",
"R  c #F79A34",
"E  c #E38E35",
"W  c #CCA33D",
"Q  c #EAA33D",
"!  c #F2A33E",
"~  c #FFA33D",
"^  c #AE894C",
"/  c #838372",
"(  c #9E8C6D",
")  c #BA9A74",
"_  c #CD9D43",
"`  c #CD9852",
"'  c #EA9B42",
"]  c #FA9E42",
"[  c #CAA845",
"{  c #DDAC46",
"}  c #D5AC57",
"|  c #D5B44F",
" . c #E8AE48",
".. c #FFA640",
"X. c #FEAD47",
"o. c #F7A848",
"O. c #EEB24C",
"+. c #E7B04A",
"@. c #F3B34D",
"#. c #FEB24C",
"$. c #FAAC58",
"%. c #FFBB55",
"&. c #FCBD58",
"*. c #F5BB55",
"=. c #EBBB5D",
"-. c #D8BB74",
";. c #DDAF68",
":. c #FCB666",
">. c #F2B365",
",. c #FEC25D",
"<. c #F3C25C",
"1. c #DFCC66",
"2. c #FFCB65",
"3. c #FECD68",
"4. c #E8D16B",
"5. c #FED26C",
"6. c #FEC87C",
"7. c #FED572",
"8. c #FFDB75",
"9. c #FEDE79",
"0. c #FADA78",
"q. c #E6D973",
"w. c #FDE37E",
"e. c #F6E57F",
"r. c #7C7D84",
"t. c #787A87",
"y. c #77828C",
"u. c #7D8E9F",
"i. c #838383",
"p. c #8C8C8C",
"a. c #838388",
"s. c #888997",
"d. c #949494",
"f. c #9B9B9B",
"g. c #94979D",
"h. c #B3B389",
"j. c #8D8DA9",
"k. c #8698A9",
"l. c #9898BD",
"z. c #92A2B3",
"x. c #A4A4A4",
"c. c #ABABAB",
"v. c #A4A4AE",
"b. c #A3A5B6",
"n. c #B4B4B4",
"m. c #BBBBBB",
"M. c #D9B886",
"N. c #CEB091",
"B. c #E8BC8F",
"V. c #C6C69E",
"C. c #F9D583",
"Z. c #E7C99B",
"A. c #F9D295",
"S. c #FFE680",
"D. c #FFEB85",
"F. c #FFEE88",
"G. c #F5E283",
"H. c #FFF28D",
"J. c #ECE797",
"K. c #FAE998",
"L. c #FEF494",
"P. c #FFF993",
"I. c #FFFF9A",
"U. c #F5F596",
"Y. c #DCC9B6",
"T. c #E8CBAB",
"R. c #FFDFBF",
"E. c #F4DDAA",
"W. c #FFFEA2",
"Q. c #FAF7A6",
"!. c #FFE8B1",
"~. c #FFFDBD",
"^. c #FFFBB6",
"/. c #FFEAAB",
"(. c #9E9ECC",
"). c #92B1D0",
"_. c #A4A4C2",
"`. c #AAAACB",
"'. c #A6A6D2",
"]. c #ADADD6",
"[. c #B8B8D9",
"{. c #ABB3CA",
"}. c #96BDE2",
"|. c #BFD0D9",
" X c #AAC9E7",
".X c #AAD4FF",
"XX c #A0D0FF",
"oX c #B5D8FA",
"OX c #C3C3C3",
"+X c #CBCBCB",
"@X c #C5C8CD",
"#X c #D4D4D4",
"$X c gainsboro",
"%X c #D5D7D9",
"&X c #CFCFD1",
"*X c #E2D5C8",
"=X c #FFFFC4",
"-X c #FFFDCB",
";X c #FFF2C2",
":X c #FFFDD3",
">X c #FFFDDD",
",X c #F9F5D7",
"<X c #F9E9CA",
"1X c #C7C7E1",
"2X c #C8D8E7",
"3X c #D8D8E7",
"4X c #DAECFB",
"5X c #C5E2FF",
"6X c #E4E4E4",
"7X c #ECECEC",
"8X c #E0E0EF",
"9X c #FFFFE3",
"0X c #FFFEEC",
"qX c #F3F3F3",
"wX c #FFFFF3",
"eX c #FCFCFB",
"rX c None",
/* pixels */
"rXrXrXrXrXrXrXrXrXrXrXrX8 8 8 8 8 8 8 5 5 rXrXrXrXrXrXrXrXrXrXrXrXrXrXrXrXrXrXrXrXrXrXrXrXrXrXrX",
"rXrXrXrXrXrXrXrXrX8 8 r.g.c.@X%X%X#X@Xv.g.r.8 5 rXrXrXrXrXrXrXrXrXrXrXrXrXrXrXrXrXrXrXrXrXrXrXrX",
"rXrXrXrXrXrXrX8 e z.2X4X4X2X%X%X%X#X&X3X8X3X1Xb.r.8 rXrXo.3.,.o.R Z rXrXrXrXrXrXrXrXrXrXrXrXrXrX",
"rXrXrXrXrXrX8 z.oX5X{.s.8 8 4 4 4 4 4 8 8 a.v.[.1X_.r.n U.W.W.H.T K rXrXrXrXrXrXrXrXrXrXrXrXrXrX",
"rXrXrXrXrX8 ).oX Xe 4 $ o     rXrXrXrXrX. % 4 8 s.{.[.s./ Q.9.X.Y I < rXrXrXrXrXrXrXrXrXrXrXrXrX",
"rXrXrXrXrXu..X X9 %   rXrXrXrXrXrXrXrXrX& 4 8 x ( 9 _.].j.n &.X.Y R j rXrXrXrXrXrXrXrXrXrXrXrXrX",
"rXrXrXrX8 )..Xk.3   rXrXrXrXrXrX4 4 w f.OXY.o.C.=XV.9 _.'.t.` X.Y ~ L + rXrXrXrXrXrXrXrXrXrXrXrX",
"rXrXrXrX8 XX.Xy.# rXrXrX8 8 w d.n.$X$X%XB.$.!.-X=X=Xh.t.'.j.n X.Y ~ ! u rXrXrXrXrXrXrXrXrXrXrXrX",
"rXrXrXrX8 }..Xk.4 8 q d.m.%X6X6X6X$X*X$.6.-X:X-X~.L.U.8 '.(.8 ! Y ~ #.A rXrXrXrXrXrXrXrXrXrXrXrX",
"rXrXrXrX9 y.t.8 f.#XqXqX7X7X7X6X6XT.o.E.>X>X:X/.7.D.I.8 (.(.8 Z Y ~ #.U < rXrXrXrXrXrXrXrXrXrXrX",
"rXrXrXrXd.n.+XeXeXqXqXqX7X$X#X+X>.:.>X9X9X:X6.%.5.D.J.8 '.l.6 v Y ~ #.@.k rXrXrXrXrXrXrXrXrXrXrX",
"rXrXrXrXc.eXeXeXeXqX$Xm.x.c.N.T A.0X0X0X;X$...%.5.G./ s.'.t.b V I ~ #.,.P O rXrXrXrXrXrXrXrXrXrX",
"rXrXrXrXc.eXeX7X+Xn.x.f.f.;.X.,XwXwX0XA.T Y ..%.} 6 e '.l.8 : C I ~ #.,.O.y rXrXrXrXrXrXrXrXrXrX",
"rXrXrXrXp.qXqX6Xm.c.x.f.x.] !.9XwX0X:.Y Y Y ~ ^ 0 s.[.'.9 2 g <XR.~ #.,.2.c rXrXrXrXrXrXrXrXrXrX",
"rXrXrXrXp.qXqX6Xn.c.x.f.q b &.P.P.9.Y Y Y Y x 9 `.[.b.9 7 ^ ,X!.] ~ #.,.2.Q > rXrXrXrXrXrXrXrXrX",
"rXrXrXrXp.$X7X$Xn.x.f.f.9 |.o.D.L.H.~ Y Y Y J 8 b.s.0 l -.:XC.X.Y ~ #.,.O.a X rXrXrXrXrXrXrXrXrX",
"rXrXrXrXa.#X7X7Xc.x.f.x.8 4XT.*.H.H.3.Y Y Y ..l r z M J.^.8.&.X.Y ~ X.U <   rXrXrXrXrXrXrXrXrXrX",
"rXrXrXrXi.+X6X6Xc.f.f.c.w 8 8 E w.F.D.~ Y Y ..H i [ Q.W.S.5.&.X.Y ~ S *   rXrXrXrXrXrXrXrXrXrXrX",
"rXrXrXrXrXm.6X6Xc.f.f.n.i.i.c.N.@.D.S.2.Y Y ..%.1.W.I.P.S.5.&.X.S ~ P - rXrXrXrXrXrXrXrXrXrXrXrX",
"rXrXrXrXrXm.6X$Xn.f.x.m.+X#X7XqX' 9.S.9.T Y ..%.9.F.I.P.S.5.&.D i R o.f rXrXrXrXrXrXrXrXrXrXrXrX",
"rXrXrXrXrXx.$X$Xc.f.c.OX$XqXeXqXZ.*.w.w.%.Y ..%.5.D.I.P.S.5.&.! i A #.F - rXrXrXrXrXrXrXrXrXrXrX",
"rXrXrXrXrXc.%X%Xc.x.n.+X6XeXeX7X#X' 9.9.7.T ..%.5.D.I.P.8.3.&.X.v d X.O.f rXrXrXrXrXrXrXrXrXrXrX",
"rXrXrXrXrXf.#X#Xn.c.m.#X7XeXqX6X#XN.@.9.7.#...%.5.D.I.e.<.9.,.X.I d F ,.F * rXrXrXrXrXrXrXrXrXrX",
"rXrXrXrXrXd.#X#Xn.n.+X$XqXeX6Xn.n.m.H 5.7.2...%.5.D.4.D H S.7.X.Y c h &.O.t rXrXrXrXrXrXrXrXrXrX",
"rXrXrXrXrXp.m.#XOXn.+X6X#Xc.i.c.m.n.) @.5.5.%.%.5.+.f X j e.P.#.Y L h H 2.V rXrXrXrXrXrXrXrXrXrX",
"rXrXrXrXrXrXq x.OXc.x.i.5 % w m.m.c.f.F *.2.2.#.F y   rXy { I.7.Y ~ V V 2. .t rXrXrXrXrXrXrXrXrX",
"rXrXrXrXrXrXrXrXq 8 &     rXw +X@Xx.f.m ^ _ P Z -   rXrXrXc L.L.Y ~ ! j  .5.V rXrXrXrXrXrXrXrXrX",
"rXrXrXrXrXrXrXrXrXrXrXrXrXrXq #X#Xf.f.w i.OXw @   rXrXrXrXf | C.o.~ &.Z Z 5.{ , rXrXrXrXrXrXrXrX",
"rXrXrXrXrXrXrXrXrXrXrXrXrXrXw OX#Xf.x.p.w +Xd.# rXrXrXrXrXrXu < f G ^.=.c O.5.h rXrXrXrXrXrXrXrX",
"rXrXrXrXrXrXrXrXrXrXrXrXrXrXw +X%Xf.x.d.w +Xf.% rXrXrXrXrXrXrXrX- G ~.7.D F 8.{ , rXrXrXrXrXrXrX",
"rXrXrXrXrXrXrXrXrXrXrXrXrXrXrXw c.f.c.f.w +Xx.& rXrXrXrXrXrXrXrXs ;.~.,.O.C <.9.g rXrXrXrXrXrXrX",
"rXrXrXrXrXrXrXrXrXrXrXrXrXrXrXrX3 w #Xm.w OXm.& rXrXrXrXrXrXrXrXh } A.&.2.S U S.W = rXrXrXrXrXrX",
"rXrXrXrXrXrXrXrXrXrXrXrXrXrXrXrX9 c.7Xm.w OXm.4 rXrXrXrXrXrXrXrXrXt s _ :X=.K 5.0.p rXrXrXrXrXrX",
"rXrXrXrXrXrXrXrXrXrXrXrXrXrXrXrXi.6X$Xm.i.m.#X4 rXrXrXrXrXrXrXrXrXrXt -.:X2.L ! F.W = rXrXrXrXrX",
"rXrXrXrXrXrXrXrXrXrXrXrXrXrXrXi.f.6X+X+Xi.n.6X5 rXrXrXrXrXrXrXrXrXrXd -.:X5.@.L 7.e.p rXrXrXrXrX",
"rXrXrXrXrXrXrXrXrXrXrXrXrXrXrXrX8 i.n.#Xi.n.6X9   rXrXrXrXrXrXrXrXrXd E.;X5.7.I @.P.N : rXrXrXrX",
"rXrXrXrXrXrXrXrXrXrXrXrXrXrXrXrXrXi.6X7Xd.c.7Xi.  rXrXrXrXrXrXrXrXrXp p s _ >X:.Y D.4.1 rXrXrXrX",
"rXrXrXrXrXrXrXrXrXrXrXrXrXrXrXrXi.c.qX6Xf.x.7Xp.o rXrXrXrXrXrXrXrXrXrXrX, } wXK.Y 3.q.= rXrXrXrX",
"rXrXrXrXrXrXrXrXrXrXrXrXrXrXrXrXp.6X7X#Xx.x.7Xp.# rXrXrXrXrXrXrXrXrXrXrXp M.wXS.5.P.| = rXrXrXrX",
"rXrXrXrXrXrXrXrXrXrXrXrXrXrXrXrXp.OX#X#Xn.d.qXc.# rXrXrXrXrXrXrXrXrXrXrXp Z.eXS.F.P.N + rXrXrXrX",
"rXrXrXrXrXrXrXrXrXrXrXrXrXrXrXrXrX8 f.7Xm.d.qXn.& rXrXrXrXrXrXrXrXrXrXrXi g B [ | M *   rXrXrXrX",
"rXrXrXrXrXrXrXrXrXrXrXrXrXrXrXrXrXi.+XeXOXd.qXm.3 rXrXrXrXrXrXrXrXrXrXrXrXrXX + ; O   rXrXrXrXrX",
"rXrXrXrXrXrXrXrXrXrXrXrXrXrXrXrXrXf.eXqX#Xf.6XOX& rXrXrXrXrXrXrXrXrXrXrXrXrXrXrXrXrXrXrXrXrXrXrX",
"rXrXrXrXrXrXrXrXrXrXrXrXrXrXrXrXp.+XeX7X6X6XeXi.. rXrXrXrXrXrXrXrXrXrXrXrXrXrXrXrXrXrXrXrXrXrXrX",
"rXrXrXrXrXrXrXrXrXrXrXrXrXrXrXrXrXp.m.6XqXeX+X4   rXrXrXrXrXrXrXrXrXrXrXrXrXrXrXrXrXrXrXrXrXrXrX",
"rXrXrXrXrXrXrXrXrXrXrXrXrXrXrXrXrXrX3 i.n.f.4 o rXrXrXrXrXrXrXrXrXrXrXrXrXrXrXrXrXrXrXrXrXrXrXrX",
"rXrXrXrXrXrXrXrXrXrXrXrXrXrXrXrXrXrXrXrX% .   rXrXrXrXrXrXrXrXrXrXrXrXrXrXrXrXrXrXrXrXrXrXrXrXrX",
"rXrXrXrXrXrXrXrXrXrXrXrXrXrXrXrXrXrXrXrXrXrXrXrXrXrXrXrXrXrXrXrXrXrXrXrXrXrXrXrXrXrXrXrXrXrXrXrX"
};
