/* XPM */
static const char *wxappfw_6[] = {
/* columns rows colors chars-per-pixel */
"16 16 131 2 ",
"   c black",
".  c #010101",
"X  c #070401",
"o  c #040405",
"O  c #0A0A0B",
"+  c #1A1103",
"@  c #19191A",
"#  c #1B1B1B",
"$  c #1E1E1E",
"%  c #261A00",
"&  c #261805",
"*  c #3C2708",
"=  c #222323",
"-  c #2C2C2C",
";  c gray21",
":  c #5D3B0F",
">  c #6E5015",
",  c #404143",
"<  c #464646",
"1  c #5A5856",
"2  c #525659",
"3  c #6E676B",
"4  c #74777D",
"5  c #7B7B7B",
"6  c #94671A",
"7  c #AB661C",
"8  c #976822",
"9  c #996B20",
"0  c #A37A2A",
"q  c #BF7E24",
"w  c #BF7F35",
"e  c #947C57",
"r  c #B78432",
"t  c #B08637",
"y  c #C68029",
"u  c #DC8C2D",
"i  c #DB912A",
"p  c #CC873B",
"a  c #DB8C37",
"s  c #E39A33",
"d  c #D8A23E",
"f  c #B99145",
"g  c #948572",
"h  c #938A77",
"j  c #B0A569",
"k  c #BFA076",
"l  c #D4934B",
"z  c #D79E4A",
"x  c #D1A249",
"c  c #C0AA59",
"v  c #DBB15A",
"b  c #ECA746",
"n  c #E9A846",
"m  c #FFAC43",
"M  c #FFAF49",
"N  c #FFAB4D",
"B  c #EEB24C",
"V  c #FFB147",
"C  c #FFB749",
"Z  c #F9B551",
"A  c #FFBA54",
"S  c #CAAB68",
"D  c #DEB366",
"F  c #E6B066",
"G  c #FFC253",
"H  c #FDC25D",
"J  c #D4C177",
"K  c #FFCC61",
"L  c #E9C570",
"P  c #EBC47D",
"I  c #FDCA73",
"U  c #FFCA72",
"Y  c #F6D872",
"T  c #747F89",
"R  c #7E84A0",
"E  c #898989",
"W  c gray54",
"Q  c #8E8E8E",
"!  c gray56",
"~  c #959089",
"^  c #969089",
"/  c #83859B",
"(  c #898B9A",
")  c gray57",
"_  c #94979A",
"`  c #97999B",
"'  c #9A9A9B",
"]  c #868BAB",
"[  c #8196AA",
"{  c #979BA0",
"}  c #9D9DA1",
"|  c #929EAA",
" . c #A2A2A2",
".. c gray64",
"X. c #A2A4A6",
"o. c #A5A9A3",
"O. c #A2A0AB",
"+. c #A0A6AB",
"@. c #A9A9AA",
"#. c #ADAEAF",
"$. c #AFAFAF",
"%. c #B0AFB2",
"&. c #B1B1B1",
"*. c gray71",
"=. c #BBB7B3",
"-. c #B8BABC",
";. c #BCBCBC",
":. c gray75",
">. c #E8CD9F",
",. c #FFE980",
"<. c #F5E289",
"1. c #FFF58C",
"2. c #E6E19B",
"3. c #D9CBBC",
"4. c #E4C9A8",
"5. c #FBDABA",
"6. c #FFF5B1",
"7. c #FEF1B7",
"8. c #95B0CA",
"9. c #C1C1C1",
"0. c gray78",
"q. c #CBCBCB",
"w. c gray80",
"e. c #D8D8D8",
"r. c #DADADA",
"t. c #FFEBC6",
"y. c #DADCE2",
"u. c #DEDFE1",
"i. c gray88",
"p. c #EAE9E9",
"a. c None",
/* pixels */
"a.a.a.| +.#.} ( 3 z b a.a.a.a.a.",
"a.a.8.2 $ = , g O.o.Z 7 a.a.a.a.",
"a.T [ 1 _ =.4.7.2.] l u a.a.a.a.",
"a.' i.u.3.5.t.U J R w V : a.a.a.",
"a. .p.{ k 6.N p / h F A 8 a.a.a.",
"a.a.e.` ^ Y C a j <.M y & a.a.a.",
"a.a.w.&.y.>.K m 1.,.s q + a.a.a.",
"a.a.#.;.@.%.D G r t H i 9 a.a.a.",
"a.a.a.- ; -.^ e X * x n d a.a.a.",
"a.a.a.a.a.) X.4   a.a.L B > a.a.",
"a.a.a.a.a.E ;.! o a.a.f U 0 a.a.",
"a.a.a.a.a.E 0. .O a.a.6 P v a.a.",
"a.a.a.a.a.! q.*.@ a.a.a.S c a.a.",
"a.a.a.a.a.a.e.9.@ a.a.a.a.% a.a.",
"a.a.a.a.a.a.5 <   a.a.a.a.a.a.a.",
"a.a.a.a.a.a.a.a.a.a.a.a.a.a.a.a."
};
