/* XPM */
static const char *wxappfw_5[] = {
/* columns rows colors chars-per-pixel */
"32 32 200 2 ",
"   c #000000",
".  c #0B0B0B",
"X  c #160D02",
"o  c #1B1B1B",
"O  c gray7",
"+  c #341F04",
"@  c #393938",
"#  c gray15",
"$  c #462D01",
"%  c #482D03",
"&  c #42280A",
"*  c #593709",
"=  c #653F0B",
"-  c #6F450F",
";  c #76530C",
":  c #764813",
">  c #685A3E",
",  c #4C4C4D",
"<  c #454648",
"1  c #5D5D5D",
"2  c #7B6D5D",
"3  c #75674B",
"4  c #676767",
"5  c #65656A",
"6  c #6B6C6D",
"7  c #66686B",
"8  c #766D60",
"9  c #6C6E73",
"0  c #737373",
"q  c #7C7C7C",
"w  c #767779",
"e  c #895A09",
"r  c #865514",
"t  c #975F18",
"y  c #996614",
"u  c #A37012",
"i  c #BA7817",
"p  c #AB7114",
"a  c #855C22",
"s  c #8D7337",
"d  c #AB7729",
"f  c #B77923",
"g  c #C77B15",
"h  c #CE7B23",
"j  c #836E4C",
"k  c #86755F",
"l  c #A77F46",
"z  c #827A6E",
"x  c #837F7C",
"c  c #BE8D35",
"v  c #BA9B37",
"b  c #C2821C",
"n  c #E78618",
"m  c #CE8923",
"M  c #D78924",
"N  c #CE8D31",
"B  c #D99B37",
"V  c #EC8E21",
"C  c #EE932E",
"Z  c #FF952E",
"A  c #FA9C2E",
"S  c #E89A35",
"D  c #F79B35",
"F  c #FF9B34",
"G  c #F39E3A",
"H  c #FE9F39",
"J  c #F09630",
"K  c #EDA139",
"L  c #FFA33C",
"P  c #F2A53E",
"I  c #A68650",
"U  c #918071",
"Y  c #92846A",
"T  c #BB9571",
"R  c #B6956C",
"E  c #C89947",
"W  c #C28F52",
"Q  c #C38E49",
"!  c #C9AA46",
"~  c #C8A052",
"^  c #D6AC48",
"/  c #E4AE4C",
"(  c #E9AF49",
")  c #ECA642",
"_  c #FFA642",
"`  c #FFAA44",
"'  c #F2A842",
"]  c #F5B247",
"[  c #F7B64C",
"{  c #FEB34D",
"}  c #E9AB53",
"|  c #E3A852",
" . c #EFBA53",
".. c #FFBB54",
"X. c #FFBF59",
"o. c #F9B856",
"O. c #CB9D61",
"+. c #C1AC6D",
"@. c #D7B171",
"#. c #EDB362",
"$. c #FCBB75",
"%. c #F4BB7E",
"&. c #E8C25E",
"*. c #FDC25C",
"=. c #FBC95F",
"-. c #D5C360",
";. c #DDC071",
":. c #E5CA67",
">. c #FDCC64",
",. c #F1CB6B",
"<. c #FCC666",
"1. c #FED46C",
"2. c #FFCA78",
"3. c #FDD472",
"4. c #FFDA74",
"5. c #F9DA78",
"6. c #FDE47D",
"7. c #7E7E88",
"8. c #7C7D83",
"9. c #7E95AB",
"0. c #838383",
"q. c #8D8D8D",
"w. c #85898D",
"e. c #878994",
"r. c #80839E",
"t. c #949494",
"y. c #9B9C9C",
"u. c #94999F",
"i. c #BDB88B",
"p. c #A7A099",
"a. c #9D9EA1",
"s. c #9897AC",
"d. c #999ABD",
"f. c #8A96AA",
"g. c #92A4B5",
"h. c #A3A3A4",
"j. c #ACACAC",
"k. c #A6ABB2",
"l. c #ADB0B6",
"z. c #B4B4B3",
"x. c #B4B7BE",
"c. c #BCBCBC",
"v. c #D4B189",
"b. c #DECF88",
"n. c #CDD295",
"m. c #FFCB82",
"M. c #FFC68C",
"N. c #EED490",
"B. c #FFD699",
"V. c #EBC49D",
"C. c #FEE583",
"Z. c #FFED86",
"A. c #F3ED8C",
"S. c #FEF78F",
"D. c #FFED9B",
"F. c #FAEE96",
"G. c #FFF993",
"H. c #FFFF9B",
"J. c #E4C5A4",
"K. c #F8D0A1",
"L. c #EDDFB6",
"P. c #FFEEA4",
"I. c #FFFDA1",
"U. c #FDEBB4",
"Y. c #FFEBBA",
"T. c #FFF9BC",
"R. c #9295C1",
"E. c #9C9ED0",
"W. c #9FA2DA",
"Q. c #9CBDDC",
"!. c #A7AACD",
"~. c #BBBCC4",
"^. c #BCBCD2",
"/. c #A5A6D2",
"(. c #BAC0C4",
"). c #B9C8D8",
"_. c #9AC3EB",
"`. c #B0CFED",
"'. c #C3C3C3",
"]. c #CCCCCC",
"[. c #CECFD1",
"{. c #D3D3D3",
"}. c #DCDCDC",
"|. c #D3D7DB",
" X c #E7DED7",
".X c #FFEBC3",
"XX c #FFFDCB",
"oX c #FFFFD5",
"OX c #D8DCE1",
"+X c #DCE0E5",
"@X c #E4E4E4",
"#X c #ECECEC",
"$X c #E8E7E5",
"%X c #FFFAEB",
"&X c #FAF4E4",
"*X c #E9EDF1",
"=X c #F3F3F2",
"-X c #FFFFF3",
";X c #FEFEFE",
":X c None",
/* pixels */
":X:X:X:X:X:X:X:X:X:X:X:X:X:X:X:X:X:X:X:X:X:X:X:X:X:X:X:X:X:X:X:X",
":X:X:X:X:X:X6 w.k.(.[.].x.h.0.7 :X:X:X:X:X:X:X:X:X:X:X:X:X:X:X:X",
":X:X:X:X7 g.`.).k.a.y.y.a.k.~.^.s.5 Q C.C.[ h :X:X:X:X:X:X:X:X:X",
":X:X:X7 Q.`.w @ o O . . . o < 6 s.!.e.n.6._ M :X:X:X:X:X:X:X:X:X",
":X:X:Xf.`.5 .   :X:X:X:X, 9 U W i.e./.7.} L D : :X:X:X:X:X:X:X:X",
":X:X:X_.Q.@ . :X1 w t.~.[.J.m.T.oXi.f.R.I L L f :X:X:X:X:X:X:X:X",
":X:X:X9.9.6 y.c.}.#X*X X%.B.oXXXD.S.8.W.k A ` G & :X:X:X:X:X:X:X",
":X:X0.h.'.#X;X;X$X|.J.$..X-XY.<.4.A.7.E.j V ` { t :X:X:X:X:X:X:X",
":X:Xq.=X;X#X{.z.p.@.M.%X-XB.L { :.Y d.r.a n L X.N :X:X:X:X:X:X:X",
":X:Xq $X=X'.h.u.T 2.-X%X$.Z F E z d.d.> I K._ X.o.- :X:X:X:X:X:X",
":X:X:X}.#Xc.h.t.x #.G.6.Z F C 2 !.s.3 +.U.o.L *.o.r :X:X:X:X:X:X",
":X:X:X].=Xc.y.t.f.J.1.G.{ Z H l 8 s b.P.X.H L ) r X :X:X:X:X:X:X",
":X:X:Xc.#Xz.y.h.0 w } Z.4.F H K v F.I.1...H D r   :X:X:X:X:X:X:X",
":X:X:Xz.$Xz.y.z.c.OXV.>.Z.` F { C.H.S.4.[ i G f :X:X:X:X:X:X:X:X",
":X:X:Xh.@Xz.h.'.#X;X$X#.6.>.F { 4.G.G.3...i m ' = :X:X:X:X:X:X:X",
":X:X:Xh.}.c.j.].=X;X+Xv.=.4.` { 4.H.6.1.*.J i [ f :X:X:X:X:X:X:X",
":X:X:Xt.{.c.c.$X=X].j.z.| 4.*.{ 4.&.p ,.4.H g B ( * :X:X:X:X:X:X",
":X:X:X:Xy.c.z.j.4 0 c.l.R [ >...B * X E G.` C b *.u :X:X:X:X:X:X",
":X:X:X:X:X1 < .   4 {.j.q.Y O.d +   :Xy A.<.L M ( / % :X:X:X:X:X",
":X:X:X:X:X:X:X:X:X0 {.j.t.w.x.@   :X:X:Xd f / ,.m >.y :X:X:X:X:X",
":X:X:X:X:X:X:X:X:Xw '.j.y.0.c., :X:X:X:X:X$ @.D.M  .^ % :X:X:X:X",
":X:X:X:X:X:X:X:X:X:X1 0.c.q.'.1 :X:X:X:X:X:X;.5.] S 3.r :X:X:X:X",
":X:X:X:X:X:X:X:X:X:X:Xh.}.q.'.6 :X:X:X:X:X:Xe c U.S >.! :X:X:X:X",
":X:X:X:X:X:X:X:X:X:X0.{.{.t.'.q :X:X:X:X:X:X:XE XX] P 5.; :X:X:X",
":X:X:X:X:X:X:X:X:X:X:X0.].h.].t.  :X:X:X:X:X:X~ N.3.G 4.v :X:X:X",
":X:X:X:X:X:X:X:X:X:X:Xt.=Xj.'.j.. :X:X:X:X:X:X:Xe L.m...-.  :X:X",
":X:X:X:X:X:X:X:X:X:Xq ].#Xj.c.z.o :X:X:X:X:X:X:Xy &XD.Z.!   :X:X",
":X:X:X:X:X:X:X:X:X:X:X0.'.'.z.].# :X:X:X:X:X:X:Xu @.:.:.;   :X:X",
":X:X:X:X:X:X:X:X:X:X:Xw }.{.z.{.@ :X:X:X:X:X:X:X:X:X$ $   :X:X:X",
":X:X:X:X:X:X:X:X:X:X:Xz.;X@X}.'.o :X:X:X:X:X:X:X:X:X:X:X:X:X:X:X",
":X:X:X:X:X:X:X:X:X:X:Xq.'.#X#X6   :X:X:X:X:X:X:X:X:X:X:X:X:X:X:X",
":X:X:X:X:X:X:X:X:X:X:X:X@ 6 , O :X:X:X:X:X:X:X:X:X:X:X:X:X:X:X:X"
};
