/* XPM */
static const char *wxappfw_1[] = {
/* columns rows colors chars-per-pixel */
"48 48 255 2 ",
"   c #39352E",
".  c gray19",
"X  c gray21",
"o  c #393939",
"O  c gray24",
"+  c #3F3F3F",
"@  c #493D25",
"#  c #5B471D",
"$  c #664C19",
"%  c #534431",
"&  c #614A2A",
"*  c #675029",
"=  c #775522",
"-  c #695633",
";  c #7A5F37",
":  c gray27",
">  c #4B4B4B",
",  c #565656",
"<  c #585858",
"1  c #5D5D5D",
"2  c #756A59",
"3  c gray39",
"4  c #646464",
"5  c gray40",
"6  c #696660",
"7  c #6B6B6D",
"8  c #777064",
"9  c #6C6E70",
"0  c #717171",
"q  c gray45",
"w  c #767676",
"e  c #73757C",
"r  c gray48",
"t  c #7E7E7E",
"y  c #885D1D",
"u  c #996605",
"i  c #AA6F09",
"p  c #B5750F",
"a  c #A16B1B",
"s  c #AC7716",
"d  c #BB761D",
"f  c #855B26",
"g  c #8C6B36",
"h  c #AF7B2A",
"j  c #C07E1A",
"k  c #9A7446",
"l  c #867763",
"z  c #867D70",
"x  c #897F72",
"c  c #BD913B",
"v  c #C9811B",
"b  c #CE8723",
"n  c #D58420",
"m  c #D68B25",
"M  c #DC8A24",
"N  c #D38F29",
"B  c #D78F29",
"V  c #DC902D",
"C  c #D98E35",
"Z  c #CB9230",
"A  c #CD9F3F",
"S  c #DD9834",
"D  c #E28B28",
"F  c #E4922C",
"G  c #F0932D",
"H  c #E38E35",
"J  c #E69B35",
"K  c #E69E3D",
"L  c #FB9731",
"P  c #F39D37",
"I  c #FF9933",
"U  c #F89B35",
"Y  c #FE9E38",
"T  c #FE9E3E",
"R  c #F3A03A",
"E  c #F1A43E",
"W  c #F9A13B",
"Q  c #FFA33D",
"!  c #FFA43E",
"~  c #A98552",
"^  c #838372",
"/  c #A89272",
"(  c #C89850",
")  c #F29C43",
"_  c #CAA845",
"`  c #DDAC46",
"'  c #CDB34D",
"]  c #D4B34D",
"[  c #D5AC57",
"{  c #DFB554",
"}  c #E7AF49",
"|  c #F0A540",
" . c #FFA640",
".. c #F6A943",
"X. c #FFAD47",
"o. c #F4A14C",
"O. c #FDA54B",
"+. c #F2AF49",
"@. c #FBAF49",
"#. c #EEB24C",
"$. c #F4B44E",
"%. c #F7B54F",
"&. c #FDB04A",
"*. c #F8B24C",
"=. c #FFB24C",
"-. c #FEB44E",
";. c #FAAD57",
":. c #EDBA5F",
">. c #F5BB55",
",. c #F9B852",
"<. c #FFB953",
"1. c #FFBA54",
"2. c #FFBD57",
"3. c #FABE58",
"4. c #D9B46E",
"5. c #FBB467",
"6. c #F4C25C",
"7. c #FEC25D",
"8. c #E0CE68",
"9. c #FFCA64",
"0. c #FECC66",
"q. c #FFCE68",
"w. c #EFD16B",
"e. c #F9D16B",
"r. c #FFD16B",
"t. c #FFD26D",
"y. c #FAD46E",
"u. c #FED56F",
"i. c #E6D973",
"p. c #FED771",
"a. c #FFD474",
"s. c #F4DD77",
"d. c #FFDB75",
"f. c #FFD678",
"g. c #FEDE79",
"h. c #F7E57F",
"j. c #7A7C84",
"k. c #78808D",
"l. c #818181",
"z. c #838383",
"x. c #868686",
"c. c #838388",
"v. c #8B8B8B",
"b. c gray55",
"n. c #8E8E8E",
"m. c #878A9A",
"M. c #929292",
"N. c gray58",
"B. c gray59",
"V. c #94949A",
"C. c #949A9F",
"Z. c gray60",
"A. c #9B9B9B",
"S. c gray61",
"D. c #9F9F9F",
"F. c #B3B389",
"G. c #8C95AF",
"H. c #92A2B3",
"J. c #A0A0A0",
"K. c gray64",
"L. c #A4A4A4",
"P. c #A7A7A7",
"I. c #A5A5AE",
"U. c #A9A9A9",
"Y. c gray67",
"T. c #ACADAD",
"R. c #AEAEAE",
"E. c #A2A2B7",
"W. c #B1B1B1",
"Q. c gray70",
"!. c #B4B4B4",
"~. c #B7B7B7",
"^. c #B9B9B9",
"/. c gray73",
"(. c #BCBCBC",
"). c gray",
"_. c #D9B78C",
"`. c #C6C69E",
"'. c #FECC80",
"]. c #F2CE97",
"[. c #F3E083",
"{. c #FFE580",
"}. c #FFE882",
"|. c #FFEB85",
" X c #FFEC86",
".X c #FFEE89",
"XX c #FFF38E",
"oX c #ECE797",
"OX c #FEE393",
"+X c #FEF494",
"@X c #FFF892",
"#X c #FFFA94",
"$X c #F5F299",
"%X c #FFFF9B",
"&X c #EBD3AB",
"*X c #E1CAB1",
"=X c #FFE5AB",
"-X c #FCFAA5",
";X c #FFE8B1",
":X c #FFFCBA",
">X c #9D9DC8",
",X c #92B1D0",
"<X c #A6A6C2",
"1X c #A5B5C6",
"2X c #B0B0CE",
"3X c #A8A8D2",
"4X c #B6BBDB",
"5X c #96BDE2",
"6X c #BFD0D9",
"7X c #ABD3FB",
"8X c #C1C1C1",
"9X c #C6C6C6",
"0X c #C4C4CA",
"qX c #C6CBCF",
"wX c gray79",
"eX c gray80",
"rX c #CECECE",
"tX c #D4CEC8",
"yX c #CCCCD3",
"uX c #CED4D9",
"iX c gray82",
"pX c gray83",
"aX c #D4D4D6",
"sX c #D7D7D7",
"dX c #D6D7DC",
"fX c gray85",
"gX c gainsboro",
"hX c #DFDFDF",
"jX c #E2D5C8",
"kX c #ECE2C5",
"lX c #FFEAC1",
"zX c #FFFEC6",
"xX c #FFECD6",
"cX c #F9F5D7",
"vX c #FFFDD2",
"bX c #FFFDDD",
"nX c #C3C3E1",
"mX c #C9D3E5",
"MX c #DDDDEE",
"NX c #D5E9FC",
"BX c #E1E1E1",
"VX c gray89",
"CX c gray90",
"ZX c #E6E6E6",
"AX c #EAEAEA",
"SX c gray93",
"DX c #FFFEE8",
"FX c gray94",
"GX c #F3F3F3",
"HX c gray96",
"JX c #FFFFF1",
"KX c gray98",
"LX c #FFFFF9",
"PX c #FEFEFE",
"IX c None",
/* pixels */
"IXIXIXIXIXIXIXIXIXIXIXIXb.b.b.b.b.b.b.b.b.IXIXIXIXIXIXIXIXIXIXIXIXIXIXIXIXIXIXIXIXIXIXIXIXIXIXIX",
"IXIXIXIXIXIXIXIXIXB.5 j.C.T.qXpXfXpX0XI.V.t 5 B.IXIXIXIXIXIXIXIXIXIXIXIXIXIXIXIXIXIXIXIXIXIXIXIX",
"IXIXIXIXIXIXIXb.e H.mXNXNXmXuXpXfXpXyXdXMXMXmXE.j.0 IXIX;.0.7.+.R IXIXIXIXIXIXIXIXIXIXIXIXIXIXIX",
"IXIXIXIXIXIX0 H.7XNX1Xm.5 3 < < < < < 3 5 c.I.4XnX<Xj.l $X-X%XXXY D IXIXIXIXIXIXIXIXIXIXIXIXIXIX",
"IXIXIXIXIXz.,X7X4Xe 1 : X . O 5 5 5 5 5 O : , 5 m.2X4Xm.^ -Xg.X.I G ; IXIXIXIXIXIXIXIXIXIXIXIXIX",
"IXIXIXIXIXm.7X7X9 > . < IXIXIXIXIXIXIXIXB.w 3 k / 7 <X3Xm.l 2.X.I U h IXIXIXIXIXIXIXIXIXIXIXIXIX",
"IXIXIXIXB.,X7XG.> . IXIXIXIXIXIXJ.0 r A.9X*Xo.'.zX`.7 >X3Xe ( X.I Q F 2 IXIXIXIXIXIXIXIXIXIXIXIX",
"IXIXIXIXb.7X7Xk.O v.IXIXQ.v.r B.!.gXgXfX_.;.;XzXzXzXF.j.3XG.l X.I Q R g IXIXIXIXIXIXIXIXIXIXIXIX",
"IXIXIXIXb.5X7XG.< b.z.B.).fXZXZXVXVXjX;.'.zXvXvX:X+X$X5 3X>X5 E I Q &.n 0 IXIXIXIXIXIXIXIXIXIXIX",
"IXIXIXIXM.k.j.5 D.pXGXGXSXAXAXZXVX&XO.=XbXbXvX=Xa. X%X5 >X>X5 b I Q =.J ; IXIXIXIXIXIXIXIXIXIXIX",
"IXIXIXIXM.Q.rXKXKXHXGXGXSXgXiXtX5.5.bXDXbXvX'.<.t. XoX5 3XG.2 j L Q =.%.h 0 IXIXIXIXIXIXIXIXIXIX",
"IXIXIXIXU.PXPXKXKXGXgX).L.U._.T ].JXDXDXlX;. .<.t.[.^ m.3Xk.k v G Q =.7.F 2 IXIXIXIXIXIXIXIXIXIX",
"IXIXIXIXU.KXKXSXrXQ.L.A.A.4.O.xXLXJXJX].T I  .<.[ 2 e 3X>X3 & n G Q =.7.#.f IXIXIXIXIXIXIXIXIXIX",
"IXIXIXIXb.HXHXZX^.T.L.A.J.) ;XDXJXDX5.I I I W ~ 6 m.4X3X7 ; s kXlXQ =.7.0.j 0 IXIXIXIXIXIXIXIXIX",
"IXIXIXIXL.GXGXVX!.U.J.A.w k 2.#X@Xg.I I I I h 7 <X4XE.7 ; c cX;XT Q =.7.0.K ; IXIXIXIXIXIXIXIXIX",
"IXIXIXIXT.gXSXgXQ.L.A.D.9 6Xo.|.XXXX! I I I C 5 E.m.6 g 4.vX'.X.I Q =.7.#.a   IXIXIXIXIXIXIXIXIX",
"IXIXIXIXT.pXAXAXT.L.A.L.5 NX*X,.XX.Xq.I I I  .g 8 ; h oX:Xf.2.X.I Q @.S f . 0 IXIXIXIXIXIXIXIXIX",
"IXIXIXIXL.wXZXZXU.D.A.T.r 5 5 H {..X|.Q I I  .S u _ -X-X{.r.2.X.I Q m % . 0 IXIXIXIXIXIXIXIXIXIX",
"IXIXIXIXL.).ZXVXU.A.D.!.x.x.T._.%.|.}.9.I I  .<.8.-X%X#X{.r.2.X.M Q F & 0 IXIXIXIXIXIXIXIXIXIXIX",
"IXIXIXIXIX).VXgXQ.A.L.).rXpXAXGX) g.{.g.Y I  .<.d..X%X#X{.r.2.N u P ..a IXIXIXIXIXIXIXIXIXIXIXIX",
"IXIXIXIXIXL.gXgXU.A.T.9XgXGXPXGX].>.{.g.2.I  .<.t. X%X#X{.r.2.E u b =.B 2 IXIXIXIXIXIXIXIXIXIXIX",
"IXIXIXIXIXU.gXfXT.J.!.rXVXKXPXAXpXK d.g.p.Y  .<.t. X%X#Xd.q.2.X.j i @.+.a IXIXIXIXIXIXIXIXIXIXIX",
"IXIXIXIXIXD.pXpX!.U.).pXAXPXHXVXiX_.%.d.d.-. .<.t. X%Xh.6.d.7.X.G i B 7.N 2 IXIXIXIXIXIXIXIXIXIX",
"IXIXIXIXIXL.pXpX!.Q.wXgXHXPXZXQ.Q.^.S u.p.q. .<.t. Xw.m S }.p.X.I v p 3.#.y IXIXIXIXIXIXIXIXIXIX",
"IXIXIXIXIXIX^.iX8X!.rXZXpXT.z.T.^.Q./ +.u.t.1.<.t.} a   d h.#X=.I G p S 0.v z IXIXIXIXIXIXIXIXIX",
"IXIXIXIXIXIXb.J.8XT.L.x.5 > r ).).T.A.V >.0.9.-.V f . 5 c ` %Xp.I Q v v 0.} y IXIXIXIXIXIXIXIXIX",
"IXIXIXIXIXIXIXB.0 7 > . O t z.rX9XL.A.x ~ ( S b & . z IXIXb +X+XI Q E j } r.j z IXIXIXIXIXIXIXIX",
"IXIXIXIXIXIXIXIXIXIXIXIXIXIXD.pXiXD.A.t x.9Xr % O z IXIXIXc { [.| Q 2.b b r.` = IXIXIXIXIXIXIXIX",
"IXIXIXIXIXIXIXIXIXIXIXIXIXIXD.9XiXA.J.b.t wXB.O IXIXIXIXIXIX~ = a Z :X:.v #.y.s z IXIXIXIXIXIXIX",
"IXIXIXIXIXIXIXIXIXIXIXIXIXIXU.wXfXA.L.B.r rXA.: IXIXIXIXIXIXIXz / A :Xa.m B d.` = IXIXIXIXIXIXIX",
"IXIXIXIXIXIXIXIXIXIXIXIXIXIXIXz.U.A.U.A.r rXL.> x.IXIXIXIXIXIXIX_.4.:X7.#.n 6.g.s z IXIXIXIXIXIX",
"IXIXIXIXIXIXIXIXIXIXIXIXIXIXIXIX1 r iX^.t 8X^.> z IXIXIXIXIXIXIX4.[ ].3.0.M K {.A * IXIXIXIXIXIX",
"IXIXIXIXIXIXIXIXIXIXIXIXIXIXIXIX!.T.AX^.t 8X)., z IXIXIXIXIXIXIXIXk a A vX:.D e.s.u z IXIXIXIXIX",
"IXIXIXIXIXIXIXIXIXIXIXIXIXIXIXIXx.VXgX^.z.).iX< 5 IXIXIXIXIXIXIXIXIX~ 4.vX0.F | .XA - IXIXIXIXIX",
"IXIXIXIXIXIXIXIXIXIXIXIXIXIXIXIXD.ZXwXrXz.Q.VX1 5 IXIXIXIXIXIXIXIXIX( 4.vXr.%.G p.h.u IXIXIXIXIX",
"IXIXIXIXIXIXIXIXIXIXIXIXIXIXIXIXx.z.!.iXx.!.ZX5 < IXIXIXIXIXIXIXIXIXc &XlXr.u.G *.@Xc - IXIXIXIX",
"IXIXIXIXIXIXIXIXIXIXIXIXIXIXIXIXIXz.VXSXM.U.AXz.. IXIXIXIXIXIXIXIXIXc a a A bX5.L  X8.$ IXIXIXIX",
"IXIXIXIXIXIXIXIXIXIXIXIXIXIXIXIXIXT.GXVXD.J.SXb.X IXIXIXIXIXIXIXIXIXIXv.g [ JXOXI q.i.$ IXIXIXIX",
"IXIXIXIXIXIXIXIXIXIXIXIXIXIXIXIXv.ZXGXpXJ.L.GXb.O IXIXIXIXIXIXIXIXIXIXIX( _.LX{.t.@X' $ IXIXIXIX",
"IXIXIXIXIXIXIXIXIXIXIXIXIXIXIXIXA.8XpXpXQ.M.GXU.O IXIXIXIXIXIXIXIXIXIXIXc ].PX{..X@Xc @ IXIXIXIX",
"IXIXIXIXIXIXIXIXIXIXIXIXIXIXIXIXIX7 A.SX).B.HX!.> IXIXIXIXIXIXIXIXIXIXIXc s j _ ] h # . IXIXIXIX",
"IXIXIXIXIXIXIXIXIXIXIXIXIXIXIXIXIXB.wXKX8XB.GX^.> IXIXIXIXIXIXIXIXIXIXIXIX5   @ # @ O IXIXIXIXIX",
"IXIXIXIXIXIXIXIXIXIXIXIXIXIXIXIXD.D.KXHXpXA.ZX8X> IXIXIXIXIXIXIXIXIXIXIXIXIXIXIXIXIXIXIXIXIXIXIX",
"IXIXIXIXIXIXIXIXIXIXIXIXIXIXIXIXD.rXPXSXVXZXPXz.X IXIXIXIXIXIXIXIXIXIXIXIXIXIXIXIXIXIXIXIXIXIXIX",
"IXIXIXIXIXIXIXIXIXIXIXIXIXIXIXIXIXx.).VXGXKXrX1 O IXIXIXIXIXIXIXIXIXIXIXIXIXIXIXIXIXIXIXIXIXIXIX",
"IXIXIXIXIXIXIXIXIXIXIXIXIXIXIXIXIXIX3 z.!.A.1 o z IXIXIXIXIXIXIXIXIXIXIXIXIXIXIXIXIXIXIXIXIXIXIX",
"IXIXIXIXIXIXIXIXIXIXIXIXIXIXIXIXIXIXIXz < X O z IXIXIXIXIXIXIXIXIXIXIXIXIXIXIXIXIXIXIXIXIXIXIXIX",
"IXIXIXIXIXIXIXIXIXIXIXIXIXIXIXIXIXIXIXIXIXIXIXIXIXIXIXIXIXIXIXIXIXIXIXIXIXIXIXIXIXIXIXIXIXIXIXIX"
};
