/* XPM */
static const char *addrec_xpm[] = {
/* columns rows colors chars-per-pixel */
"32 32 3 1",
"  c black",
". c green",
"X c #C0C0C0",
/* pixels */
"XXXXXXXXXXXXXXXXXXXXXXXXXXXXXXXX",
"XXXXXXXXXXXXXXXXXXXXXXXXXXXXXXXX",
"XXXXXXXXXXXXXXXXXXXXXXXXXXXXXXXX",
"XXXXXXXXXXXXXXXXXXXXXXXXXXXXXXXX",
"XXXXXXXXXXXXXXXXXXXXXXXXXXXXXXXX",
"XXXXXXXXXXXXXXXXXXXXXXXXXXXXXXXX",
"XXXXXXXXXXXXXXXXXXXXXXXXXXXXXXXX",
"XXXXXXXXXXXX       XXXXXXXXXXXXX",
"XXXXXXXXXXXX ..... XXXXXXXXXXXXX",
"XXXXXXXXXXXX ..... XXXXXXXXXXXXX",
"XXXXXXXXXXXX ..... XXXXXXXXXXXXX",
"XXXXXXXXXXXX ..... XXXXXXXXXXXXX",
"XXXXXXXXXXXX ..... XXXXXXXXXXXXX",
"XXXXXX       .....       XXXXXXX",
"XXXXXX ................. XXXXXXX",
"XXXXXX ................. XXXXXXX",
"XXXXXX ................. XXXXXXX",
"XXXXXX ................. XXXXXXX",
"XXXXXX ................. XXXXXXX",
"XXXXXX       .....       XXXXXXX",
"XXXXXXXXXXXX ..... XXXXXXXXXXXXX",
"XXXXXXXXXXXX ..... XXXXXXXXXXXXX",
"XXXXXXXXXXXX ..... XXXXXXXXXXXXX",
"XXXXXXXXXXXX ..... XXXXXXXXXXXXX",
"XXXXXXXXXXXX ..... XXXXXXXXXXXXX",
"XXXXXXXXXXXX       XXXXXXXXXXXXX",
"XXXXXXXXXXXXXXXXXXXXXXXXXXXXXXXX",
"XXXXXXXXXXXXXXXXXXXXXXXXXXXXXXXX",
"XXXXXXXXXXXXXXXXXXXXXXXXXXXXXXXX",
"XXXXXXXXXXXXXXXXXXXXXXXXXXXXXXXX",
"XXXXXXXXXXXXXXXXXXXXXXXXXXXXXXXX",
"XXXXXXXXXXXXXXXXXXXXXXXXXXXXXXXX"
};
