/* XPM */
static const char *delrec_xpm[] = {
/* columns rows colors chars-per-pixel */
"32 32 2 1",
"  c #800000",
". c #C0C0C0",
/* pixels */
"................................",
"................................",
".......................... .....",
"........................   .....",
"......................    ......",
".....................    .......",
"....      ..........    ........",
"......      .......    .........",
"........      ....    ..........",
"..........     ..    ...........",
"...........          ...........",
"............        ............",
".............      .............",
"..............     .............",
".............       ............",
"............         ...........",
"............    .     ..........",
"...........     ...   ..........",
"...........    .....   .........",
"..........    .......   ........",
"..........    ........  ........",
".........    ..........  .......",
".........   ............ .......",
".........  .............  ......",
"........   .............. ......",
"........  ............... ......",
".......   ......................",
".......  .......................",
"....... ........................",
"....... ........................",
"................................",
"................................"
};
