/* XPM */
static const char *findrec_xpm[] = {
/* columns rows colors chars-per-pixel */
"32 32 6 1",
"  c black",
". c #800000",
"X c red",
"o c #808080",
"O c #C0C0C0",
"+ c gray100",
/* pixels */
"                 OOOOOOOOOOOOOOO",
" +++++++++++++++ OOOOOOOOOOOOOOO",
" +++++++++++++++   OOOOOOOOOOOOO",
" ++O+OOO+OOO+O++   OOOOOOOOOOOOO",
" +++++++++++++++   OOOOOOOOOOOOO",
" ++OOO+OOO+OOO++   OOOOOOOOOOOOO",
" +++++++++++++++   OOOOOOOOOOOOO",
" ++O+OO+OOOO+......OOOOOOOOOOOOO",
" ++++++++++..+Oo++ ..OOOOOOOOOOO",
" ++OOO+OOO.O+oOO++   .OOOOOOOOOO",
" ++++++++.++++++++   O.OOOOOOOOO",
" ++OO+O+.O+O+O+O++   OO.OOOOOOOO",
" ++++++.+OOoO+Oo++   OOO.OOOOOOO",
" ++OOO+.++++++++++   OOO.OOOOOOO",
" +++++.+O+O+Oo+O++   OOOO.OOOOOO",
" ++O+O.O+OoOo+Oo++   OOOO.OOOOOO",
" +++++.+++++++++++   OOOO.OOOOOO",
" +++++.+O+OoO+oO++   OOOO.OOOOOO",
"      .OOO+O+O+O++   OOOO.OOOOOO",
"OO    .+++++++++++   OOOO.OOOOOO",
"OO     .             OOO.OOOOOOO",
"OOOOOOO.             OOO.OOOOOOO",
"OOOOOOOO.            OO.OOOOOOOO",
"OOOOOOOOO.OOOOOOOOOOOO...OOOOOOO",
"OOOOOOOOOO.OOOOOOOOOO..X..OOOOOO",
"OOOOOOOOOOO..OOOOOO..O..X..OOOOO",
"OOOOOOOOOOOOO......OOOO..X..OOOO",
"OOOOOOOOOOOOOOOOOOOOOOOO..X..OOO",
"OOOOOOOOOOOOOOOOOOOOOOOOO..X..OO",
"OOOOOOOOOOOOOOOOOOOOOOOOOO..X..O",
"OOOOOOOOOOOOOOOOOOOOOOOOOOO..X.O",
"OOOOOOOOOOOOOOOOOOOOOOOOOOOO..OO"
};
