/* XPM */
static const char *help_xpm[] = {
/* columns rows colors chars-per-pixel */
"32 32 7 1",
"  c black",
". c #800080",
"X c #808000",
"o c yellow",
"O c #808080",
"+ c #C0C0C0",
"@ c gray100",
/* pixels */
"+++++++++++++++++++++       ++++",
"+++++++++++++++++++  ooooooo  ++",
"++++++++++++++++++ +ooooooooo+ +",
"++++++++++++++++++ ooooooooooo +",
"+++++++++++++++++ ooooo   ooooo ",
"+++++++++++++++++ oooo +++ oooo ",
"+++++++++++O O+++ oooo +++ oooo ",
"+++++++++O  . O++      +++ oooo ",
"+++++++O  .... O+++++++++ ooooo ",
"+++++O  .XoooX. O++++++O ooooo+ ",
"+++O  ..XoooooX. O++++ ooooooO +",
"+O  ...XooX.Xoo.. O++ ooooooO ++",
"  .....Xoo...oo... O+ ooooo@ +++",
" @+.....ooX..oo.... O oooo@ ++++",
"  @+....XoX..oo.....        ++++",
" . @+........oo...... O+++++++++",
" .. @+.......ooX.....       ++++",
" ... @+......Xoo..... ooooo ++++",
" .... @+........XoX.. ooooo ++++",
" ..... @+.......ooo.. ooooo ++++",
"O ..... @+......XoX.. ooooo ++++",
"+O ..... @+.........        ++++",
"++O ..... @+......  O+@@++++++++",
"+++O ..... @+...  O+@@@@O ++++++",
"++++O ..... @+  O+@@@@O  O++++++",
"+++++O ....   O+@@@@O  O++++++++",
"++++++O ... O+@@@@O  O++++++++++",
"+++++++O .. @@@@O  O++++++++++++",
"++++++++O . @@O  O++++++++++++++",
"+++++++++O  O  O++++++++++++++++",
"++++++++++O  O++++++++++++++++++",
"+++++++++++O++++++++++++++++++++"
};
