/* XPM */
static const char *new_xpm[] = {
/* columns rows colors chars-per-pixel */
"32 32 4 1",
"  c black",
". c #808080",
"X c #C0C0C0",
"o c gray100",
/* pixels */
"XXXXXXXXXXXXXXXXXXXXXXXXXXXXXXXX",
"XXXXXXXXXXXXXXXXXXXXXXXXXXXXXXXX",
"XXXXXXXXXXXXXXXXXXXXXXXXXXXXXXXX",
"XXXXXXXXXXXXX......XXXXXXXXXXXXX",
"XXXXXXXXXXXX.oXXXXX XXXXXXXXXXXX",
"XXXXXX...XX.oX    XX XX.  .XXXXX",
"XXXX. o.   .X .... X    o.   XXX",
"XXX.X    XX   XXXX   XX    XX XX",
"XX.XXXXXXXXXXXXXXXXXXXXXXXXX.. X",
"X.ooooooooooooooooooooooooo... X",
"X.oXXXXXXXXXXXXXXXXXXXXXXXX... X",
"X.oXXXXXXXXXXXXXXXXXXXXXXXX... X",
"X.oXXoooooooooooooooooooXXX... X",
"X.oXoXXXXXXXXXXXXXXXXXX..XX... X",
"X.oXX...................XXX... X",
"X.oXXXXXXXXXXXXXXXXXXXXXXXX... X",
"X.oXXXXXXXXXXXXXXXXXXXXXXXX... X",
"X.oXXoooooooooooooooooooXXX... X",
"X.oXoXXXXXXXXXXXXXXXXXX..XX... X",
"X.oXX...................XXX... X",
"X.oXXXXXXXXXXXXXXXXXXXXXXXX... X",
"X.oXXXXXXXXXXXXXXXXXXXXXXXX... X",
"X.oXXoooooooooooooooooooXXX... X",
"X.oXoXXXXXXXXXXXXXXXXXX..XX... X",
"X.oXX...................XXX... X",
"X.oXXXXXXXXXXXXXXXXXXXXXXXX.. XX",
"X........................... XXX",
"XX                          XXXX",
"XXXXXXXXXXXXXXXXXXXXXXXXXXXXXXXX",
"XXXXXXXXXXXXXXXXXXXXXXXXXXXXXXXX",
"XXXXXXXXXXXXXXXXXXXXXXXXXXXXXXXX",
"XXXXXXXXXXXXXXXXXXXXXXXXXXXXXXXX"
};
