/* XPM */
static const char *open_xpm[] = {
/* columns rows colors chars-per-pixel */
"32 32 6 1",
"  c black",
". c #808000",
"X c yellow",
"o c #808080",
"O c #C0C0C0",
"+ c gray100",
/* pixels */
"OOOOOOOO     OOOOOOOOOOOOOOOOOOO",
"OOOOOOO oOOOo OOOOOOOOOOOOOOOOOO",
"OOOOooo oooOoooo OOOOOOOOOOOOOOO",
"OOOo+++ oOo OOOO.  OOOOOOOOOOOOO",
"OOo+OO   Ooo   XX.. OOOOOOOOOOOO",
"Oo+OO oo oX  oO XXO. OOOOOOOOOOO",
"o+OO+ oOoXX  OO XXXO. OOOOOOOOOO",
"o+OOO o+oXX OOO X XO. OOOOOOOOOO",
"o+OO+O  oXXXoo X X XO. OOOOOOOOO",
"o+OOO+OooXXXXXX X XOX. OOOOOOOOO",
"o+OO+Oo+oXXXXX X XOXO. OOOOOOOOO",
"Oo+OO+o+ XXXX X XOXOX. OOOOOOOOO",
"OOo+OOo+O XXXXOXOXOXO. OOOOOOOOO",
"OOOo+Oo+O oXXXXXXXXOX. OOOOOOOOO",
"OOOOo+o+OO ooXXXXXXXo . OOOOOOOO",
"OOOOOo+o+OO  ooooooXXo . OOOOOOO",
"OOOOOo+Oo+OO+      XXXo . OOOOOO",
"OOOOo+OOoo+OO+OOo O XXXo . OOOOO",
"OOOOo+OOoOo+OO+o OOOoXXXo . OOOO",
"OOOOO oOoO o+Ooo OOOoXXXXo . OOO",
"OOOOOO OoO o+OoO OOOOo..XXo . OO",
"OOOOOo+OoOo+OOoO OOOOOo  XXo . O",
"OOOOo+OOoOo+OOoO OOOOOOOoXXXo . ",
"OOOOO oOoO  oOoO OOOOOOOo..XXo  ",
"OOOOOO OoO O OoO OOOOOOOOo  XXo ",
"OOOOOo+OoO o+OoO OOOOOOOOOOoX.. ",
"OOOOOo+OoOo+OOoO OOOOOOOOOOOo  O",
"OOOOOooOOO  oOoO OOOOOOOOOOOOOOO",
"OOOOOO OO  o OoO OOOOOOOOOOOOOOO",
"OOOOOOO  OO +OoO OOOOOOOOOOOOOOO",
"OOOOOOOOOOOO OO OOOOOOOOOOOOOOOO",
"OOOOOOOOOOOOO  OOOOOOOOOOOOOOOOO"
};
