/* XPM */
static const char *print_xpm[] = {
/* columns rows colors chars-per-pixel */
"32 32 6 1",
"  c black",
". c #800000",
"X c red",
"o c #808080",
"O c #C0C0C0",
"+ c gray100",
/* pixels */
"OOOOOOOOOOOOOOOOOOOOOOOOOOOOOOOO",
"OOOOOOOOOOOOOOOOOOOOOOOOOOOOOOOO",
"OOOOOOOOOOOOOOOOOOOOOOOOOOOOOOOO",
"OOOOOOOOOOOOOOOOOOOOOOOOOOOOOOOO",
"OOOOOOOOOOOOOOOOOOOOOOOOOOOOOOOO",
"OOOOOOOOOOOOOOOOOOOOOOOOOOOOOOOO",
"OOOOOOOOOOO               OOOOOO",
"OOOOOOOOOOO O+++++++++++O OOOOOO",
"OOOOOOOOOO o++++++++++++ OOOOOOO",
"OOOOOOOOOO +++o  ++++++o OOOOOOO",
"OOOOOOOOO o+++o  o+++++ OOOOOOOO",
"OOOOO     ++++ o  ++++o        O",
"OOOO OOo o+++o +  o+++ oOOOOOo O",
"OOO OOo  ++++ o+o  ++O    OO+o O",
"OO OOo                   OO+oo O",
"O OOOOOOOOOOOOOOOOOOOOOOOO+ooo O",
" +++++++++++++++++++++++++oooo O",
" +OOOOOOOOOOOOOOOOOOOOOOOOoooo O",
" +OOOOOOOOOOOOOOOOOOOXX.OOoooo O",
" +OOOOOOOOOOOOOOOOOOOO+++Ooooo O",
" +OOOOOOOOOOOOOOOOOOO   OOoooo O",
" +OOOOOOOOOOOOOOOOOOOO+++Oooo OO",
" +OO                OOOOOOoo  OO",
" +O oOOooOOOooOOO+o oOOOOOo o oo",
" o oOOoooOOoooOO+oo        o ooo",
"O ++++++++++++++oo ooOOOOOo oooO",
"O ooooooooooooooo ooOOOOOO oooOO",
"O OOOOOOOOOOOOOo          oooOOO",
"OO               oooooooooooOOOO",
"OOOooooooooooooooooOOOOOOOOOOOOO",
"OOOOOOOOOOOOOOOOOOOOOOOOOOOOOOOO",
"OOOOOOOOOOOOOOOOOOOOOOOOOOOOOOOO"
};
